<svg width="22" height="22" viewBox="0 0 22 22" fill="none" xmlns="http://www.w3.org/2000/svg">
<path d="M18.8999 1.30719C18.739 0.897602 18.1614 0.897602 18.0005 1.30719L17.5701 2.40247C17.521 2.52752 17.4224 2.62651 17.2978 2.67583L16.2065 3.1078C15.7984 3.26934 15.7984 3.849 16.2065 4.01054L17.2978 4.44252C17.4224 4.49184 17.521 4.59082 17.5701 4.71587L18.0005 5.81115C18.1614 6.22074 18.739 6.22074 18.8999 5.81116L19.3303 4.71587C19.3794 4.59082 19.478 4.49184 19.6026 4.44252L20.6939 4.01054C21.102 3.849 21.102 3.26934 20.6939 3.1078L19.6026 2.67583C19.478 2.62651 19.3794 2.52752 19.3303 2.40247L18.8999 1.30719Z" stroke="white"/>
<path d="M15.0327 7.12969C14.8717 6.72011 14.2942 6.72011 14.1332 7.12969L13.9763 7.52904C13.9272 7.65409 13.8286 7.75307 13.704 7.80239L13.3061 7.95989C12.898 8.12143 12.898 8.70109 13.3061 8.86263L13.704 9.02012C13.8286 9.06942 13.9272 9.16842 13.9763 9.29352L14.1332 9.69282C14.2942 10.1024 14.8717 10.1024 15.0327 9.69282L15.1896 9.29352C15.2387 9.16842 15.3373 9.06942 15.4619 9.02012L15.8598 8.86263C16.2679 8.70109 16.2679 8.12143 15.8598 7.95989L15.4619 7.80239C15.3373 7.75307 15.2387 7.65409 15.1896 7.52904L15.0327 7.12969Z" stroke="white"/>
<path d="M6.37554 19.013C6.017 18.8056 5.5582 18.9281 5.3508 19.2866C5.14339 19.6452 5.26591 20.104 5.62446 20.3114L6.37554 19.013ZM1.68862 16.3755C1.89602 16.7341 2.35482 16.8566 2.71337 16.6492C3.07191 16.4418 3.19443 15.983 2.98703 15.6245L1.68862 16.3755ZM20.25 11C20.25 16.1086 16.1086 20.25 11 20.25V21.75C16.9371 21.75 21.75 16.9371 21.75 11H20.25ZM1.75 11C1.75 5.89137 5.89137 1.75 11 1.75V0.25C5.06294 0.25 0.25 5.06294 0.25 11H1.75ZM14.5 13.25C11.3244 13.25 8.75 10.6756 8.75 7.5H7.25C7.25 11.5041 10.4959 14.75 14.5 14.75V13.25ZM19.4253 10.469C18.4172 12.1373 16.5882 13.25 14.5 13.25V14.75C17.1349 14.75 19.4407 13.3439 20.7092 11.2447L19.4253 10.469ZM8.75 7.5C8.75 5.41182 9.8627 3.5828 11.531 2.57467L10.7553 1.29085C8.65609 2.5593 7.25 4.86509 7.25 7.5H8.75ZM11 1.75C10.9115 1.75 10.8077 1.71008 10.7324 1.63168C10.6686 1.56527 10.6538 1.50244 10.6503 1.47703C10.6461 1.44587 10.6482 1.35557 10.7553 1.29085L11.531 2.57467C12.0342 2.27065 12.196 1.71398 12.1368 1.27627C12.0754 0.82126 11.7166 0.25 11 0.25V1.75ZM20.7092 11.2447C20.6444 11.3518 20.5541 11.3539 20.523 11.3497C20.4976 11.3462 20.4347 11.3314 20.3683 11.2676C20.2899 11.1923 20.25 11.0885 20.25 11H21.75C21.75 10.2834 21.1787 9.9246 20.7237 9.8632C20.286 9.804 19.7293 9.9658 19.4253 10.469L20.7092 11.2447ZM11 20.25C9.3139 20.25 7.73533 19.7996 6.37554 19.013L5.62446 20.3114C7.2064 21.2265 9.0432 21.75 11 21.75V20.25ZM2.98703 15.6245C2.20043 14.2647 1.75 12.6861 1.75 11H0.25C0.25 12.9568 0.77351 14.7936 1.68862 16.3755L2.98703 15.6245Z" fill="white"/>
</svg>
