<svg width="22" height="22" viewBox="0 0 22 22" fill="none" xmlns="http://www.w3.org/2000/svg">
<g id="Group 131">
<path id="Vector" fill-rule="evenodd" clip-rule="evenodd" d="M10.75 0C4.81294 0 0 4.81294 0 10.75C0 16.6871 4.81294 21.5 10.75 21.5C16.6871 21.5 21.5 16.6871 21.5 10.75C21.5 4.81294 16.6871 0 10.75 0ZM1.5 10.75C1.5 5.64137 5.64137 1.5 10.75 1.5C15.8586 1.5 20 5.64137 20 10.75C20 15.8586 15.8586 20 10.75 20C5.64137 20 1.5 15.8586 1.5 10.75Z" fill="white"/>
<g id="Group 18">
<path id="Line 3" d="M8.25 7.25L8.25 14.25" stroke="white" stroke-width="2" stroke-linecap="round"/>
<path id="Line 4" d="M13.25 7.25L13.25 14.25" stroke="white" stroke-width="2" stroke-linecap="round"/>
</g>
</g>
</svg>
