<svg width="17" height="18" viewBox="0 0 17 18" fill="none" xmlns="http://www.w3.org/2000/svg">
<g id="Group">
<path id="Vector" d="M13.7289 1.29267V3.03536C12.8146 3.17656 12.1123 3.9689 12.1123 4.92218C12.1123 5.87547 12.8146 6.66775 13.7289 6.80901V17.3581C13.7289 17.5197 13.8599 17.6508 14.0216 17.6508C14.1832 17.6508 14.3143 17.5197 14.3143 17.3581V6.80901C15.2286 6.66774 15.9308 5.87547 15.9308 4.92218C15.9308 3.9689 15.2286 3.17655 14.3143 3.03536V1.29267C14.3143 1.13106 14.1832 1 14.0216 1C13.8599 0.999991 13.7289 1.13106 13.7289 1.29267ZM15.3455 4.92218C15.3455 5.55162 14.9038 6.07946 14.3143 6.21314C14.22 6.23445 14.1222 6.24613 14.0216 6.24613C13.921 6.24613 13.8232 6.23445 13.7289 6.21314C13.1393 6.07945 12.6976 5.55162 12.6976 4.92218C12.6976 4.29267 13.1393 3.76482 13.7289 3.63122C13.8232 3.60982 13.921 3.59823 14.0216 3.59823C14.1222 3.59823 14.22 3.60982 14.3143 3.63122C14.9038 3.76482 15.3455 4.29267 15.3455 4.92218Z" fill="white" stroke="white" stroke-width="0.5"/>
<path id="Vector_2" d="M3.20195 17.3581V6.80901C4.11638 6.66774 4.81865 5.87547 4.81865 4.92218C4.81865 3.9689 4.11638 3.17655 3.20195 3.03536V1.29267C3.20195 1.13106 3.07097 1 2.90929 1C2.74768 1 2.61662 1.13106 2.61662 1.29267V3.03536C1.70228 3.17655 1 3.9689 1 4.92218C1 5.87547 1.70228 6.66775 2.61661 6.80901V17.3581C2.61661 17.5197 2.74768 17.6508 2.90928 17.6508C3.07097 17.6508 3.20195 17.5197 3.20195 17.3581ZM1.58534 4.92218C1.58534 4.29267 2.02704 3.76482 2.61661 3.63122C2.71085 3.60982 2.80876 3.59823 2.90928 3.59823C3.00988 3.59823 3.10771 3.60982 3.20194 3.63122C3.79161 3.76482 4.23331 4.29267 4.23331 4.92218C4.23331 5.55162 3.79161 6.07946 3.20194 6.21314C3.1077 6.23445 3.00988 6.24613 2.90928 6.24613C2.80876 6.24613 2.71084 6.23445 2.61661 6.21314C2.02704 6.07946 1.58534 5.55162 1.58534 4.92218Z" fill="white" stroke="white" stroke-width="0.5"/>
<path id="Vector_3" d="M8.75769 17.3581V14.1357C9.67203 13.9944 10.3743 13.2021 10.3743 12.2488C10.3743 11.2955 9.67203 10.5032 8.75769 10.362V1.29267C8.75769 1.13106 8.62664 1 8.46502 1C8.30334 1 8.17236 1.13106 8.17236 1.29267V10.362C7.25794 10.5032 6.55566 11.2955 6.55566 12.2488C6.55566 13.2021 7.25794 13.9944 8.17236 14.1356V17.3581C8.17236 17.5197 8.30334 17.6508 8.46502 17.6508C8.62664 17.6508 8.75769 17.5197 8.75769 17.3581ZM7.14101 12.2488C7.14101 11.6193 7.5827 11.0915 8.17236 10.9579C8.26659 10.9365 8.36442 10.9249 8.46502 10.9249C8.56563 10.9249 8.66346 10.9365 8.75769 10.9579C9.34728 11.0915 9.78897 11.6193 9.78897 12.2488C9.78897 12.8783 9.34728 13.4061 8.75769 13.5398C8.66345 13.5611 8.56563 13.5728 8.46502 13.5728C8.36442 13.5728 8.26659 13.5611 8.17236 13.5398C7.58269 13.4061 7.14101 12.8783 7.14101 12.2488Z" fill="white" stroke="white" stroke-width="0.5"/>
</g>
</svg>
