<svg width="19" height="16" viewBox="0 0 19 16" fill="none" xmlns="http://www.w3.org/2000/svg">
<path fill-rule="evenodd" clip-rule="evenodd" d="M10.1178 2.09148C9.52264 2.38062 8.76839 2.87637 7.69356 3.58504L7.51111 3.70534C7.49723 3.7145 7.48352 3.72353 7.47 3.73246C7.15317 3.94145 6.93374 4.08619 6.69329 4.19232C6.45632 4.29689 6.20728 4.37161 5.95188 4.41473C5.69272 4.4585 5.42984 4.45844 5.05029 4.45837C5.03409 4.45837 5.01768 4.45836 5.00104 4.45836C3.79799 4.45836 3.3919 4.47193 3.04664 4.63167C2.71302 4.78603 2.35768 5.12036 2.18331 5.44398C2.00141 5.78158 1.96802 6.12757 1.90381 7.18108C1.88619 7.47017 1.87598 7.74733 1.87598 8C1.87598 8.25275 1.88619 8.52983 1.90381 8.819C1.96802 9.8725 2.00141 10.2185 2.18331 10.5561C2.35768 10.8797 2.71302 11.214 3.04664 11.3684C3.3919 11.5282 3.79799 11.5417 5.00104 11.5417C5.01768 11.5417 5.03408 11.5417 5.05028 11.5417C5.42984 11.5416 5.69272 11.5416 5.95188 11.5853C6.20728 11.6284 6.45632 11.7032 6.69329 11.8077C6.93374 11.9138 7.15317 12.0586 7.46999 12.2676C7.48352 12.2765 7.49722 12.2856 7.51111 12.2947L7.69356 12.415C8.76839 13.1237 9.52264 13.6194 10.1178 13.9086C10.7114 14.1969 11.0082 14.2085 11.2158 14.1376C11.3303 14.0986 11.4424 14.0415 11.5414 13.972C11.7219 13.8451 11.8865 13.5996 12.0022 12.9568C12.1185 12.3111 12.1613 11.4178 12.2206 10.1422C12.264 9.20917 12.2926 8.4265 12.2926 8C12.2926 7.57358 12.264 6.79083 12.2206 5.85788C12.1613 4.58226 12.1185 3.68897 12.0022 3.04323C11.8865 2.40043 11.7219 2.15496 11.5414 2.02808C11.4424 1.95853 11.3303 1.90151 11.2158 1.86243C11.0082 1.79158 10.7114 1.80313 10.1178 2.09148ZM9.57164 0.967125C10.26 0.632733 10.9377 0.44675 11.6196 0.679425C11.8461 0.756742 12.0642 0.867733 12.2601 1.00538C12.8485 1.41888 13.0976 2.07222 13.2325 2.82177C13.3651 3.55873 13.4105 4.53536 13.467 5.75193L13.4692 5.79986C13.5124 6.729 13.5426 7.54 13.5426 8C13.5426 8.46 13.5124 9.27108 13.4692 10.2002L13.467 10.2481C13.4105 11.4647 13.3651 12.4413 13.2325 13.1782C13.0976 13.9278 12.8485 14.5812 12.2601 14.9947C12.0642 15.1323 11.8461 15.2433 11.6196 15.3207C10.9377 15.5533 10.26 15.3673 9.57164 15.0329C8.89364 14.7036 8.07108 14.1612 7.04537 13.4849L6.82304 13.3382C6.44978 13.0922 6.32138 13.0099 6.18859 12.9513C6.04641 12.8886 5.89698 12.8438 5.74374 12.8178C5.60061 12.7937 5.44814 12.7917 5.00104 12.7917C4.95572 12.7917 4.911 12.7917 4.86687 12.7917C3.85277 12.7922 3.14813 12.7927 2.52178 12.5028C1.94278 12.235 1.38548 11.7106 1.08288 11.149C0.755696 10.5417 0.717304 9.90675 0.662716 9.00375C0.660551 8.96792 0.658361 8.93175 0.656126 8.89508C0.637421 8.58817 0.625977 8.28467 0.625977 8C0.625977 7.71542 0.637421 7.41192 0.656126 7.105C0.658361 7.06833 0.660551 7.03208 0.662716 6.99625C0.717304 6.09333 0.755696 5.4583 1.08288 4.85107C1.38548 4.28943 1.94278 3.76508 2.52178 3.4972C3.14813 3.20741 3.85277 3.20777 4.86686 3.20832C4.911 3.20833 4.95572 3.20836 5.00104 3.20836C5.44814 3.20836 5.60061 3.20635 5.74374 3.18218C5.89698 3.15631 6.04641 3.11147 6.18859 3.04873C6.32138 2.99012 6.44978 2.90788 6.82304 2.66176L7.04538 2.51517C8.07109 1.83885 8.89364 1.29647 9.57164 0.967125ZM16.2676 2.52007C16.5327 2.29908 16.9268 2.33492 17.1478 2.60009L16.6676 3.0002C17.1478 2.60009 17.1478 2.60009 17.1478 2.60009L17.1487 2.60123L17.1498 2.60252L17.1523 2.60553L17.1586 2.61326C17.1633 2.61917 17.1691 2.62662 17.1761 2.6356C17.1901 2.65358 17.2081 2.67775 17.23 2.70822C17.2735 2.76917 17.3315 2.85533 17.3989 2.96771C17.5338 3.19255 17.7061 3.52186 17.876 3.96334C18.2161 4.84782 18.5426 6.1739 18.5426 8.00017C18.5426 9.8265 18.2161 11.1526 17.876 12.0371C17.7061 12.4786 17.5338 12.8078 17.3989 13.0327C17.3315 13.1451 17.2735 13.2312 17.23 13.2922C17.2081 13.3227 17.1901 13.3468 17.1761 13.3648C17.172 13.3702 17.1682 13.375 17.1648 13.3792C17.1626 13.3822 17.1605 13.3847 17.1586 13.3872L17.1523 13.3949L17.1498 13.3979L17.1487 13.3992C17.1487 13.3992 17.1478 13.4003 16.6676 13.0002L17.1478 13.4003C16.9268 13.6655 16.5327 13.7013 16.2676 13.4803C16.0036 13.2604 15.9669 12.8691 16.1843 12.6039M16.1843 12.6039C16.1843 12.6039 16.1858 12.602 16.1872 12.6002C16.1916 12.5945 16.2004 12.583 16.2128 12.5657C16.2376 12.5309 16.2772 12.4725 16.3271 12.3896C16.4265 12.2238 16.5666 11.9593 16.7093 11.5883C16.9941 10.8478 17.2926 9.67392 17.2926 8.00017C17.2926 6.32651 16.9941 5.15259 16.7093 4.41207C16.5666 4.04105 16.4265 3.7766 16.3271 3.61082C16.2772 3.52789 16.2376 3.46952 16.2128 3.43477C16.2004 3.41738 16.1916 3.40591 16.1872 3.4002C16.1858 3.39836 16.1843 3.39648 16.1843 3.39648L16.1872 3.4002L16.186 3.39843L16.1843 3.39648C15.9669 3.13136 16.0036 2.73997 16.2676 2.52007M14.6975 4.95386C14.9992 4.78623 15.3797 4.89493 15.5473 5.19667L15.024 5.48742C15.5473 5.19668 15.5473 5.19667 15.5473 5.19667L15.5479 5.19777L15.5486 5.19893L15.55 5.20147L15.5531 5.2074L15.5612 5.22269C15.5672 5.23442 15.5746 5.24922 15.5831 5.26714C15.6002 5.30299 15.6219 5.35132 15.6464 5.41262C15.6954 5.53525 15.7559 5.70937 15.8147 5.93872C15.9325 6.39783 16.0426 7.07508 16.0426 8.00017C16.0426 8.92533 15.9325 9.60258 15.8147 10.0617C15.7559 10.291 15.6954 10.4652 15.6464 10.5877C15.6219 10.6491 15.6002 10.6974 15.5831 10.7332C15.5746 10.7512 15.5672 10.766 15.5612 10.7777L15.5531 10.793L15.55 10.7989L15.5486 10.8015L15.5479 10.8027C15.5479 10.8027 15.5473 10.8038 15.024 10.513L15.5473 10.8038C15.3797 11.1055 14.9992 11.2142 14.6975 11.0466C14.3983 10.8803 14.2889 10.5048 14.4504 10.2044L14.4546 10.1958C14.4603 10.1838 14.4712 10.1599 14.4858 10.1236C14.5149 10.0509 14.5586 9.92808 14.6039 9.75125C14.6945 9.39783 14.7926 8.82508 14.7926 8.00017C14.7926 7.17533 14.6945 6.60258 14.6039 6.24918C14.5586 6.07229 14.5149 5.94953 14.4858 5.87685C14.4712 5.84048 14.4603 5.81655 14.4546 5.80456L14.4504 5.79603C14.2889 5.49554 14.3983 5.12007 14.6975 4.95386Z" fill="white"/>
</svg>
