<svg width="24" height="24" viewBox="0 0 24 24" fill="none" xmlns="http://www.w3.org/2000/svg">
<path d="M11.8743 18.0553C10.6518 18.0553 9.45678 17.6928 8.44033 17.0136C7.42389 16.3344 6.63167 15.3691 6.16386 14.2397C5.69604 13.1103 5.57363 11.8675 5.81213 10.6685C6.05062 9.46957 6.63929 8.36824 7.50371 7.50383C8.36812 6.63942 9.46944 6.05074 10.6684 5.81225C11.8674 5.57376 13.1102 5.69616 14.2395 6.16398C15.369 6.63179 16.3343 7.42401 17.0135 8.44045C17.6927 9.4569 18.0551 10.652 18.0551 11.8744C18.0523 13.5128 17.4002 15.0833 16.2416 16.2417C15.0832 17.4003 13.5127 18.0525 11.8743 18.0553ZM11.8743 7.30589C10.9707 7.30589 10.0874 7.57383 9.33614 8.07582C8.58486 8.57781 7.99931 9.29131 7.65352 10.1261C7.30774 10.9609 7.21728 11.8794 7.39356 12.7656C7.56982 13.6519 8.00494 14.4658 8.64385 15.1048C9.28276 15.7437 10.0967 16.1789 10.983 16.355C11.8692 16.5313 12.7877 16.4409 13.6225 16.0951C14.4573 15.7493 15.1709 15.1638 15.6728 14.4125C16.1748 13.6612 16.4427 12.778 16.4427 11.8744C16.4399 10.6636 15.9576 9.50324 15.1015 8.64711C14.2453 7.79096 13.0851 7.30873 11.8743 7.30589Z" fill="white"/>
<path d="M11.8746 4.34981C11.6616 4.34703 11.4581 4.26119 11.3075 4.11061C11.1569 3.96001 11.0712 3.75657 11.0684 3.54361V1.9312C11.0684 1.71739 11.1533 1.51232 11.3045 1.36113C11.4557 1.20994 11.6608 1.125 11.8746 1.125C12.0884 1.125 12.2935 1.20994 12.4446 1.36113C12.5958 1.51232 12.6808 1.71739 12.6808 1.9312V3.54361C12.678 3.75657 12.5922 3.96001 12.4416 4.11061C12.291 4.26119 12.0875 4.34703 11.8746 4.34981Z" fill="white"/>
<path d="M11.8746 22.6237C11.6616 22.6209 11.4581 22.5352 11.3075 22.3846C11.1569 22.234 11.0712 22.0305 11.0684 21.8175V20.2051C11.0684 19.9913 11.1533 19.7862 11.3045 19.6351C11.4557 19.4838 11.6608 19.3989 11.8746 19.3989C12.0884 19.3989 12.2935 19.4838 12.4446 19.6351C12.5958 19.7862 12.6808 19.9913 12.6808 20.2051V21.8175C12.678 22.0305 12.5922 22.234 12.4416 22.3846C12.291 22.5352 12.0875 22.6209 11.8746 22.6237Z" fill="white"/>
<path d="M21.817 12.6805H20.2046C19.9908 12.6805 19.7857 12.5956 19.6346 12.4444C19.4834 12.2932 19.3984 12.0881 19.3984 11.8743C19.3984 11.6605 19.4834 11.4554 19.6346 11.3043C19.7857 11.153 19.9908 11.0681 20.2046 11.0681H21.817C22.0309 11.0681 22.2359 11.153 22.3871 11.3043C22.5383 11.4554 22.6233 11.6605 22.6233 11.8743C22.6233 12.0881 22.5383 12.2932 22.3871 12.4444C22.2359 12.5956 22.0309 12.6805 21.817 12.6805Z" fill="white"/>
<path d="M3.54361 12.6805H1.9312C1.71739 12.6805 1.51232 12.5956 1.36113 12.4444C1.20994 12.2932 1.125 12.0881 1.125 11.8743C1.125 11.6605 1.20994 11.4554 1.36113 11.3043C1.51232 11.153 1.71739 11.0681 1.9312 11.0681H3.54361C3.75743 11.0681 3.96249 11.153 4.11368 11.3043C4.26487 11.4554 4.34981 11.6605 4.34981 11.8743C4.34981 12.0881 4.26487 12.2932 4.11368 12.4444C3.96249 12.5956 3.75743 12.6805 3.54361 12.6805Z" fill="white"/>
<path d="M5.96255 6.7684C5.75515 6.75254 5.56221 6.65607 5.42508 6.49966L4.2534 5.42473C4.17647 5.34779 4.11544 5.25645 4.0738 5.15594C4.03217 5.05542 4.01074 4.94769 4.01074 4.83888C4.01074 4.73008 4.03217 4.62235 4.0738 4.52183C4.11544 4.42131 4.17647 4.32998 4.2534 4.25304C4.33033 4.17611 4.42167 4.11509 4.52219 4.07344C4.6227 4.03181 4.73045 4.01038 4.83924 4.01038C4.94804 4.01038 5.05577 4.03181 5.15629 4.07344C5.25681 4.11509 5.34815 4.17611 5.42508 4.25304L6.50002 5.42473C6.63222 5.57254 6.70531 5.76389 6.70531 5.96219C6.70531 6.1605 6.63222 6.35185 6.50002 6.49966C6.36289 6.65607 6.16995 6.75254 5.96255 6.7684Z" fill="white"/>
<path d="M18.9255 19.7321C18.8196 19.7326 18.7146 19.7119 18.6168 19.6713C18.519 19.6308 18.4303 19.571 18.3558 19.4956L17.2486 18.324C17.1768 18.1735 17.1534 18.0045 17.1815 17.8401C17.2097 17.6759 17.2882 17.5243 17.4061 17.4064C17.5239 17.2886 17.6755 17.2101 17.8398 17.1819C18.0041 17.1537 18.1731 17.1771 18.3235 17.249L19.4952 18.324C19.6462 18.4751 19.7311 18.68 19.7311 18.8937C19.7311 19.1073 19.6462 19.3123 19.4952 19.4634C19.4235 19.5446 19.336 19.6103 19.2381 19.6566C19.1402 19.7028 19.0337 19.7285 18.9255 19.7321Z" fill="white"/>
<path d="M17.7867 6.7684C17.5794 6.75254 17.3864 6.65607 17.2493 6.49966C17.117 6.35185 17.0439 6.1605 17.0439 5.96219C17.0439 5.76389 17.117 5.57254 17.2493 5.42473L18.3242 4.25304C18.4795 4.09767 18.6903 4.01038 18.91 4.01038C19.1298 4.01038 19.3405 4.09767 19.4959 4.25304C19.6512 4.40841 19.7386 4.61916 19.7386 4.83888C19.7386 5.05861 19.6512 5.26935 19.4959 5.42473L18.3242 6.49966C18.187 6.65607 17.9941 6.75254 17.7867 6.7684Z" fill="white"/>
<path d="M4.82307 19.7321C4.71715 19.7326 4.61219 19.7119 4.51436 19.6713C4.41653 19.6308 4.32779 19.571 4.25335 19.4956C4.10238 19.3445 4.01758 19.1395 4.01758 18.9259C4.01758 18.7122 4.10238 18.5073 4.25335 18.3562L5.42504 17.249C5.57548 17.1771 5.7445 17.1537 5.90881 17.1819C6.07314 17.2101 6.22467 17.2886 6.34256 17.4064C6.46045 17.5243 6.53889 17.6759 6.56708 17.8401C6.59527 18.0045 6.57182 18.1735 6.49997 18.324L5.42504 19.4956C5.34686 19.575 5.25287 19.6371 5.14918 19.6778C5.04548 19.7186 4.93438 19.7371 4.82307 19.7321Z" fill="white"/>
</svg>
