<svg width="24" height="24" viewBox="0 0 24 24" fill="none" xmlns="http://www.w3.org/2000/svg">
<path fill-rule="evenodd" clip-rule="evenodd" d="M20.6667 17.5334H3.33333C2.96533 17.5334 2.66667 17.832 2.66667 18.2C2.66667 18.5687 2.96533 18.8667 3.33333 18.8667H20.6667C21.0347 18.8667 21.3333 18.5687 21.3333 18.2C21.3333 17.832 21.0347 17.5334 20.6667 17.5334ZM4 8.47603C4.26067 8.7367 4.68267 8.7367 4.94267 8.47603C5.20333 8.21537 5.20333 7.79403 4.94267 7.53337L4 6.5907C3.73933 6.33003 3.318 6.33003 3.05733 6.5907C2.79667 6.85137 2.79667 7.2727 3.05733 7.53337L4 8.47603ZM21.3333 14.8667H2.66667C2.29867 14.8667 2 15.1647 2 15.5334C2 15.902 2.29867 16.2 2.66667 16.2H21.3333C21.7013 16.2 22 15.902 22 15.5334C22 15.1647 21.7013 14.8667 21.3333 14.8667ZM18.6667 20.2H5.33333C4.96533 20.2 4.66667 20.4987 4.66667 20.8667C4.66667 21.2354 4.96533 21.5334 5.33333 21.5334H18.6667C19.0347 21.5334 19.3333 21.2354 19.3333 20.8667C19.3333 20.4987 19.0347 20.2 18.6667 20.2ZM12 5.53337C12.368 5.53337 12.6667 5.23537 12.6667 4.8667V3.53337C12.6667 3.1647 12.368 2.8667 12 2.8667C11.632 2.8667 11.3333 3.1647 11.3333 3.53337V4.8667C11.3333 5.23537 11.632 5.53337 12 5.53337ZM20 8.47603L20.9427 7.53337C21.2033 7.2727 21.2033 6.85137 20.9427 6.5907C20.6827 6.33003 20.2607 6.33003 20 6.5907L19.0573 7.53337C18.7967 7.79403 18.7967 8.21537 19.0573 8.47603C19.318 8.7367 19.7393 8.7367 20 8.47603ZM5.47866 13.5334C6.09732 10.492 8.774 8.20003 12 8.20003C15.226 8.20003 17.9027 10.492 18.5213 13.5334C18.5213 13.5334 18.6667 14.1167 19.0833 14.1167C19.8551 14.1167 19.924 13.5334 19.924 13.5334C19.412 9.7727 16.064 6.8667 12 6.8667C7.936 6.8667 4.58801 9.7727 4.07601 13.5334C4.07601 13.5334 4.07601 14.1167 4.91667 14.1167C5.41667 14.1167 5.47866 13.5334 5.47866 13.5334Z" fill="white"/>
</svg>
