<svg width="20" height="20" viewBox="0 0 20 20" fill="none" xmlns="http://www.w3.org/2000/svg">
<g id="Frame" clip-path="url(#clip0_9_1236)">
<g id="SVGRepo_iconCarrier">
<path id="Vector" d="M2.02608 15.8573C3.2488 18.1693 5.69034 19.0001 10.0011 19.0001C15.9577 19.0001 18.3452 17.4139 18.8799 12.5256M2.02608 15.8573C1.29665 14.478 1.00098 12.5716 1.00098 9.99992C1.00098 3.11744 3.11866 0.999756 10.0011 0.999756C16.8836 0.999756 19.0013 3.11744 19.0013 9.99992C19.0013 10.9259 18.963 11.7656 18.8799 12.5256M2.02608 15.8573L5.32719 12.5562C6.15419 11.7292 7.49504 11.7292 8.32203 12.5562L8.50372 12.7379C9.33068 13.5648 10.6716 13.5648 11.4986 12.7379L13.7979 10.4385C14.6249 9.61153 15.9658 9.61153 16.7928 10.4385L18.8799 12.5256M8.61511 6.66033C8.61511 7.73929 7.73945 8.61495 6.66049 8.61495C5.58259 8.61495 4.70693 7.73929 4.70693 6.66033C4.70693 5.58137 5.58259 4.70571 6.66049 4.70571C7.73945 4.70571 8.61511 5.58137 8.61511 6.66033Z" stroke="white" stroke-linecap="round" stroke-linejoin="round"/>
</g>
</g>
<defs>
<clipPath id="clip0_9_1236">
<rect width="20" height="20" fill="white" transform="translate(0.000976562)"/>
</clipPath>
</defs>
</svg>
