<svg width="32" height="32" viewBox="0 0 32 32" fill="none" xmlns="http://www.w3.org/2000/svg">
<g clip-path="url(#clip0_6_1088)">
<path d="M15.7975 17.0355C14.2929 15.7186 12.8734 15.2485 11.5748 15.6399C9.99029 16.1176 9.06729 17.7745 8.62979 18.8181C7.38442 17.8051 6.09854 17.3865 4.79648 17.5745C1.93542 17.9863 0.147228 21.2088 0.0725408 21.3456C-0.0842717 21.6327 0.0216033 21.9921 0.308666 22.1492C0.398978 22.1984 0.496166 22.2218 0.592228 22.2218C0.801728 22.2218 1.00485 22.1104 1.11248 21.914C1.1281 21.8856 2.69698 19.0711 4.96892 18.747C6.11704 18.5821 7.29529 19.0957 8.47004 20.2708C8.61935 20.4203 8.83692 20.4782 9.0406 20.4244C9.24429 20.3706 9.4046 20.2117 9.46073 20.0083C9.46823 19.9811 10.2298 17.2809 11.9196 16.774C12.7987 16.5101 13.8409 16.8981 15.0174 17.9273C15.2628 18.1423 15.6366 18.118 15.8536 17.8717C16.0689 17.6251 16.044 17.251 15.7975 17.0355Z" fill="white"/>
<path d="M13.4075 6.35186C12.3317 5.49105 11.3624 5.21649 10.5331 5.53417C9.83056 5.80267 9.41738 6.42536 9.18188 6.9673C8.43131 6.43661 7.6755 6.24017 6.92781 6.38511C5.16975 6.72367 4.23513 8.86049 4.19638 8.95136C4.06731 9.2523 4.20681 9.60067 4.50775 9.72942C4.58356 9.76211 4.66288 9.77774 4.74094 9.77774C4.97069 9.77774 5.18944 9.64292 5.2855 9.41836C5.29244 9.40186 6.02275 7.76649 7.15181 7.54886C7.7305 7.43805 8.374 7.7303 9.06269 8.41867C9.2195 8.57524 9.45044 8.63105 9.66106 8.56361C9.87169 8.4968 10.0279 8.3168 10.0662 8.09892C10.12 7.78786 10.3995 6.85211 10.9586 6.6403C11.4713 6.44499 12.1704 6.87961 12.6669 7.27717C12.9238 7.48261 13.2953 7.44036 13.5002 7.18461C13.7044 6.92911 13.6628 6.55611 13.4075 6.35186Z" fill="white"/>
<path d="M30.2193 30.4591C30.0162 28.4293 29.3177 27.1076 28.1429 26.5312C26.9907 25.9658 25.6892 26.2887 24.8524 26.6244C24.6939 24.6785 24.0156 23.3241 22.8299 22.5914C20.4694 21.1322 17.0649 22.8056 16.9202 22.877C16.6274 23.0234 16.5087 23.3793 16.6551 23.6721C16.8021 23.9647 17.1574 24.083 17.4502 23.9372C18.2656 23.5292 20.7118 22.6744 22.2065 23.5995C23.2002 24.2132 23.7037 25.5442 23.7037 27.5552C23.7037 27.7702 23.8205 27.9678 24.0087 28.0726C24.1973 28.1782 24.4277 28.1712 24.6094 28.0584C24.6267 28.0474 26.3767 26.9811 27.6238 27.5966C28.4045 27.9817 28.8807 28.9843 29.0399 30.5772C29.0705 30.8827 29.328 31.1107 29.629 31.1107C29.6487 31.1107 29.6684 31.1099 29.6886 31.1079C30.0145 31.0751 30.2517 30.7849 30.2193 30.4591Z" fill="white"/>
<path d="M23.7037 0.888672C19.1291 0.888672 15.4075 4.6103 15.4075 9.18492C15.4075 13.7595 19.1291 17.4812 23.7037 17.4812C28.2783 17.4812 32 13.7595 32 9.18486C32 4.61023 28.2783 0.888672 23.7037 0.888672ZM23.7037 16.2959C19.7825 16.2959 16.5927 13.1059 16.5927 9.18486C16.5927 5.26386 19.7825 2.0738 23.7037 2.0738C27.625 2.0738 30.8148 5.26386 30.8148 9.18486C30.8148 13.1059 27.625 16.2959 23.7037 16.2959Z" fill="white"/>
</g>
<defs>
<clipPath id="clip0_6_1088">
<rect width="32" height="32" fill="white"/>
</clipPath>
</defs>
</svg>
