<svg width="32" height="32" viewBox="0 0 32 32" fill="none" xmlns="http://www.w3.org/2000/svg">
<g clip-path="url(#clip0_6_1116)">
<path d="M28.8 14.4H29.3333C29.92 14.4 30.4 13.92 30.4 13.3333V12.2666H30.9333C31.52 12.2666 32 11.7866 32 11.1999V9.59994C32 9.01325 31.52 8.53325 30.9333 8.53325H23.7943L21.8134 5.06656C21.7067 4.90656 21.5467 4.79987 21.3334 4.79987H20.6045L18.6133 0.32C18.56 0.106687 18.3467 0 18.1333 0H13.8666C13.6533 0 13.4399 0.106688 13.3866 0.266688L11.3719 4.8H10.6667C10.4534 4.8 10.2934 4.90669 10.1867 5.06669L8.20575 8.53337H1.06669C0.48 8.53331 0 9.01331 0 9.6V11.2C0 11.7867 0.48 12.2667 1.06669 12.2667H1.6V13.3334C1.6 13.9201 2.08 14.4001 2.66669 14.4001H3.2V26.1334H2.66669C2.08 26.1334 1.6 26.6134 1.6 27.2001V28.2668H1.06669C0.48 28.2667 0 28.7467 0 29.3333V30.9333C0 31.52 0.48 32 1.06669 32H30.9334C31.5201 32 32.0001 31.52 32.0001 30.9333V29.3333C32.0001 28.7466 31.5201 28.2666 30.9334 28.2666H30.4V27.2C30.4 26.6133 29.92 26.1333 29.3333 26.1333H28.8V14.4ZM21.8667 26.1333C22.1867 25.7066 22.4 25.12 22.4 24.5333C22.4 23.52 23.0933 22.6666 24 22.4533V26.1333H21.8667ZM18.7981 26.1333C19.6295 25.435 20.1652 24.3687 20.2666 23.2533C20.3199 22.6133 20.4266 21.1733 18.4533 19.7866C17.76 19.2533 17.5466 18.7733 17.6 17.5999C17.6 17.3866 17.4933 17.1733 17.28 17.0666C17.0667 16.96 16.8533 17.0133 16.6933 17.1199C15.04 18.3466 14.4533 19.1999 14.6666 21.1199C14.2399 20.8533 14.0266 20.6932 14.0266 20.3199C14.0266 20.0532 13.8666 19.8399 13.6533 19.7866C13.44 19.7333 13.2266 19.8399 13.0666 19.9999L12.9066 20.2132C12.3733 20.9066 11.7333 21.7599 11.7333 23.4132C11.7333 24.4558 12.1856 25.4379 12.9767 26.1332H12.2666C11.3599 26.1332 10.6666 25.4399 10.6666 24.5333C10.6666 22.9549 9.50831 21.6348 7.99994 21.3789V14.4H23.9999V21.3789C22.4916 21.6349 21.3333 22.955 21.3333 24.5333C21.3333 25.44 20.6399 26.1333 19.7332 26.1333H18.7981ZM14.3467 25.8133C13.3867 25.3333 12.8 24.4266 12.8 23.4666C12.8 22.5599 13.0667 21.9733 13.3867 21.4933C13.6534 21.8133 14.0267 22.0266 14.3467 22.2933L14.4534 22.3466C14.7201 22.5066 15.0934 22.5066 15.4134 22.2933C15.6801 22.08 15.8401 21.76 15.7867 21.3866C15.5734 20.0533 15.7334 19.4666 16.5334 18.7199C16.6401 19.5199 17.0134 20.1599 17.8134 20.7466C19.3067 21.7599 19.2534 22.7199 19.2001 23.2533C19.1467 24.16 18.7201 24.9066 18.0268 25.44C17.4989 25.8171 16.9117 26.0518 16.3156 26.1333H15.3755C15.0227 26.084 14.6763 25.9781 14.3467 25.8133ZM6.93331 19.7333H4.26669V17.6H6.93337L6.93331 19.7333ZM4.26669 20.8H6.93337V21.8667V22.9334H4.26669V20.8ZM8 22.4533C8.90669 22.72 9.6 23.52 9.6 24.5333C9.6 25.12 9.81331 25.7066 10.1333 26.1333H8V22.4533ZM27.7333 19.7333H25.0666V17.6H27.7333V19.7333ZM25.0667 21.8667V20.8H27.7334V22.9333H25.0667V21.8667ZM27.7333 16.5333H25.0666V14.4H27.7333V16.5333ZM14.1867 1.06669H17.76L19.4133 4.8H12.5333L14.1867 1.06669ZM10.9867 5.86669H11.7334H20.2667H21.0134L22.5601 8.53337H9.44L10.9867 5.86669ZM1.06669 9.6H8.53337H23.4667H30.9334V11.2H29.8667H2.13331H1.06669V9.6ZM2.66669 12.2667H29.3334V13.3334H28.2667H24.5334H7.46669H3.73331H2.66669V12.2667ZM6.93331 14.4V16.5333H4.26669V14.4H6.93331ZM4.26669 24H6.93337V26.1333H4.26669V24ZM30.9333 30.9333H1.06669V29.3333H2.13337H29.8667H30.9334L30.9333 30.9333ZM29.3333 28.2667H2.66669V27.2H3.73338H7.46669H12.2667H19.7334H24.5334H28.2667H29.3334V28.2667H29.3333ZM25.0667 26.1333V24H27.7334V26.1333H25.0667Z" fill="white"/>
</g>
<defs>
<clipPath id="clip0_6_1116">
<rect width="32" height="32" fill="white"/>
</clipPath>
</defs>
</svg>
