<svg width="32" height="32" viewBox="0 0 32 32" fill="none" xmlns="http://www.w3.org/2000/svg">
<g clip-path="url(#clip0_6_1102)">
<path d="M10.7786 27.3703H15.1356C15.1787 27.3703 15.2203 27.3634 15.2606 27.3527C20.8086 27.3527 26.0498 27.3527 31.5031 27.3702C31.5048 27.3702 31.5067 27.3702 31.5085 27.3702C31.5236 27.3712 31.5355 27.3697 31.6263 27.356C31.7552 27.3243 31.8665 27.2414 31.9348 27.1237C31.9351 27.1232 31.9354 27.1226 31.9378 27.1184C31.9459 27.1039 31.9532 27.0889 31.9703 27.0475C31.9707 27.0464 31.9711 27.0453 31.9715 27.0443C31.976 27.0315 31.98 27.0187 31.9835 27.0058C31.9837 27.005 31.9838 27.0043 31.992 26.9679C32.024 26.7939 31.9599 26.6134 31.82 26.4989C29.334 24.458 27.5796 21.3128 26.6058 17.1509C26.5439 16.8868 26.2798 16.7226 26.0155 16.7845C25.7514 16.8463 25.5873 17.1106 25.6491 17.3748C26.5449 21.2031 28.0849 24.2267 30.2346 26.3841C25.2428 26.3704 20.3965 26.3704 15.2916 26.3704C14.824 25.9804 14.3952 25.5574 14.0029 25.1106C13.9855 25.0907 13.9681 25.071 13.9506 25.0515C12.0263 22.8316 10.9804 20.0518 10.4224 17.9254C9.94894 16.1208 9.75169 14.5248 9.67025 13.5812C9.65988 13.4497 9.65056 13.3179 9.64213 13.1857C14.774 13.2056 19.9837 13.2062 25.0397 13.2063C25.0616 13.8557 25.1265 14.5028 25.2337 15.1363C25.2743 15.3761 25.4821 15.5456 25.7174 15.5456C25.7446 15.5456 25.7722 15.5433 25.7999 15.5387C26.0674 15.4934 26.2476 15.2399 26.2023 14.9724C26.0773 14.2332 26.0139 13.4737 26.0139 12.7151C26.0139 12.4438 25.7939 12.2239 25.5227 12.2239C20.146 12.2239 14.5863 12.2239 9.12512 12.2012C9.1245 12.2012 9.12375 12.2012 9.123 12.2012H8.30437V9.54823V5.64452V5.12058C8.30437 4.84933 8.08443 4.62939 7.81318 4.62939C7.54193 4.62939 7.32199 4.84933 7.32199 5.12058V5.30402L2.43191 7.1364C2.24016 7.20828 2.1131 7.39159 2.1131 7.59634C2.1131 7.80109 2.24016 7.98447 2.43191 8.05628L7.32199 9.88866V12.2012H6.50343C6.23574 12.2012 6.01736 12.4155 6.0123 12.6831C6.0113 12.7334 5.89174 17.7561 3.59885 22.1866C3.47423 22.4276 3.56841 22.724 3.80935 22.8487C4.05042 22.9734 4.34673 22.8791 4.47136 22.6382C6.47218 18.7718 6.88793 14.5865 6.97305 13.1835H8.65393C8.66606 13.3787 8.68475 13.6289 8.71318 13.9245C9.12081 18.1538 10.3743 22.1212 13.0531 25.4565C13.217 25.6605 13.377 25.8677 13.5216 26.086C13.5267 26.0936 13.532 26.101 13.5373 26.1082C13.6209 26.2197 13.7148 26.3092 13.8066 26.3877H11.0469C9.81806 24.4418 8.89112 22.1123 8.29237 19.4566C8.24187 19.2325 8.04287 19.0734 7.81324 19.0734C7.58356 19.0734 7.38462 19.2325 7.33412 19.4566C6.73536 22.1122 5.80849 24.4417 4.57961 26.3877H1.77378C2.29622 25.8675 2.78541 25.2908 3.23579 24.6637C3.39404 24.4434 3.34366 24.1365 3.12335 23.9782C2.9031 23.82 2.59622 23.8703 2.43785 24.0907C1.76909 25.0219 1.01059 25.8312 0.183526 26.4961C0.0210878 26.6267 -0.0412249 26.8455 0.0279628 27.042C0.0972131 27.2386 0.282901 27.3701 0.491277 27.3701H4.84967C4.84961 27.3703 10.7773 27.3703 10.7786 27.3703ZM7.32224 8.83966L4.00442 7.59641L7.32224 6.35321V8.83966ZM5.73111 26.3879C6.58043 24.9385 7.27737 23.3054 7.81343 21.5091C8.34962 23.3055 9.0465 24.9386 9.89581 26.3879H5.73111Z" fill="white"/>
</g>
<defs>
<clipPath id="clip0_6_1102">
<rect width="32" height="32" fill="white"/>
</clipPath>
</defs>
</svg>
