<svg width="32" height="32" viewBox="0 0 32 32" fill="none" xmlns="http://www.w3.org/2000/svg">
<path d="M30 14C30 6.3 23.7 0 16 0C8.3 0 2 6.3 2 14C2 21.05 7.2 26.9 14 27.85V29H10C9.25 29 8.5 29.75 8.5 30.5C8.5 31.25 9.25 32 10 32H22C22.8 32 23.5 31.35 23.5 30.5C23.5 29.65 22.8 29 22 29H18V27.85C24.8 26.9 30 21.05 30 14ZM3 14C3 6.85 8.85 1 16 1C23.15 1 29 6.85 29 14C29 21.15 23.15 27 16 27C8.85 27 3 21.15 3 14ZM22 30C22.3 30 22.5 30.25 22.5 30.5C22.5 30.75 22.3 31 22 31H10C9.8 31 9.5 30.7 9.5 30.5C9.5 30.3 9.8 30 10 30H14H18H22ZM17 29H15V27.95C15.35 27.95 15.65 28 16 28C16.35 28 16.65 28 17 27.95V29Z" fill="white"/>
<path d="M19.6 17.55C19.25 16.75 18.55 15.95 18.05 15.4C18.25 15.1 18.4 14.7 18.45 14.3C18.9 14.3 19.45 14.45 20.7 15.45C20.75 15.5 20.85 15.55 20.95 15.65C21.6 16.15 22.6 17 23.8 17C24.25 17 24.75 16.85 25.25 16.55C26.1 15.95 26.6 14.9 26.6 13.45C26.6 11.55 25.6 8.95004 23.75 7.75004C20.95 5.95004 18.3 7.10004 17 9.10004C16.55 9.75004 16.15 10.75 15.9 11.55C15.55 11.55 15.25 11.65 14.95 11.75C14.7 11.35 14.5 10.8 14.65 9.20004C14.65 9.10004 14.65 9.00004 14.7 8.90004C14.8 7.75004 15.05 5.65004 13.1 4.80004C12.15 4.40004 10.95 4.60004 9.79998 5.35004C8.19998 6.40004 6.59998 8.65004 6.59998 10.85C6.59998 14.2 9.04998 15.75 11.4 15.8C11.45 15.8 11.45 15.8 11.5 15.8C12.35 15.8 13.3 15.55 13.95 15.4C14.1 15.65 14.3 15.8 14.5 16C14.25 16.4 13.75 16.95 12.25 17.55C12.15 17.6 12.05 17.6 11.95 17.65C10.9 18.05 8.89998 18.8 8.99998 20.9C9.04998 21.95 9.74998 22.9 10.95 23.6C11.95 24.2 13.4 24.6 14.8 24.6C15.65 24.6 16.55 24.45 17.3 24.05C20.3 22.55 20.6 19.7 19.6 17.55ZM14.5 14C14.5 13.15 15.15 12.5 16 12.5C16.85 12.5 17.5 13.15 17.5 14C17.5 14.85 16.85 15.5 16 15.5C15.15 15.5 14.5 14.85 14.5 14ZM17.8 9.60004C18.8 8.15004 20.8 7.00004 23.2 8.55004C24.55 9.40004 25.55 11.5 25.6 13.4C25.6 14 25.5 15.15 24.7 15.65C23.65 16.35 22.65 15.65 21.6 14.8C21.5 14.75 21.4 14.65 21.35 14.6C19.85 13.45 19.1 13.3 18.4 13.25C18.2 12.5 17.65 11.9 16.9 11.65C17.1 11 17.45 10.15 17.8 9.60004ZM11.4 14.8C9.64998 14.75 7.59998 13.7 7.54998 10.85C7.54998 9.25004 8.74998 7.25004 10.3 6.20004C10.8 5.85004 11.8 5.35004 12.65 5.70004C13.8 6.20004 13.8 7.45004 13.65 8.75004C13.65 8.85004 13.65 9.00004 13.6 9.10004C13.45 11.1 13.8 11.8 14.1 12.3C13.75 12.75 13.5 13.35 13.5 14C13.5 14.15 13.5 14.3 13.55 14.45C12.95 14.6 12.1 14.8 11.4 14.8ZM11.45 22.7C10.9 22.4 9.99998 21.75 9.99998 20.8C9.94998 19.55 11.05 19 12.3 18.55C12.4 18.5 12.5 18.45 12.6 18.45C14.5 17.7 15.05 16.95 15.35 16.45C15.55 16.5 15.75 16.55 16 16.55C16.5 16.55 16.95 16.4 17.35 16.15C17.75 16.6 18.4 17.35 18.7 18C19.45 19.6 19.4 21.9 16.85 23.2C15.4 23.85 13.1 23.65 11.45 22.7Z" fill="white"/>
</svg>
