<svg width="32" height="32" viewBox="0 0 32 32" fill="none" xmlns="http://www.w3.org/2000/svg">
<g clip-path="url(#clip0_6_1052)">
<path d="M30.9565 25.7391H25.7391V20.8696H26.7826C29.6595 20.8696 32 18.5291 32 15.6522C32 13.9431 31.1804 12.3884 29.8131 11.4196C30.2044 9.48244 29.4384 7.41563 27.7261 6.20219C28.363 3.04988 25.917 0 22.6087 0C19.2976 0 16.8549 3.05281 17.4912 6.20213C16.8741 6.6395 16.369 7.19644 16 7.83281C15.631 7.19644 15.1259 6.6395 14.5087 6.20213C15.1458 3.05025 12.6996 0 9.39131 0C6.07987 0 3.63744 3.05344 4.27388 6.20213C2.55938 7.41706 1.796 9.48569 2.18694 11.4195C0.819625 12.3884 0 13.9431 0 15.6522C0 18.5291 2.3405 20.8696 5.21737 20.8696H6.26088V25.7391H1.0435C0.467187 25.7391 0 26.2063 0 26.7826C0 27.3589 0.467187 27.8261 1.0435 27.8261C1.596 27.8261 30.1711 27.8261 30.9566 27.8261C31.5328 27.8261 32.0001 27.3589 32.0001 26.7826C32.0001 26.2063 31.5328 25.7391 30.9565 25.7391ZM19.1691 7.62719C19.6557 7.39194 19.8821 6.82412 19.6909 6.31862C18.8924 4.20738 20.4831 2.087 22.6087 2.087C24.7342 2.087 26.325 4.20725 25.5264 6.31862C25.3353 6.82412 25.5617 7.39194 26.0483 7.62719C27.4739 8.31631 28.2142 9.94744 27.6134 11.536C27.4222 12.0416 27.6486 12.6093 28.1352 12.8446C29.2318 13.3747 29.913 14.4506 29.913 15.6522C29.913 17.3783 28.5087 18.7826 26.7826 18.7826C25.9049 18.7826 19.3387 18.7826 18.4347 18.7826C18.2141 18.7826 17.9968 18.7594 17.7852 18.7149C18.4117 17.8541 18.7826 16.7959 18.7826 15.6522C18.7826 14.4062 18.3465 13.2427 17.5807 12.3279C17.6884 12.0849 17.7045 11.802 17.6039 11.536C17.0042 9.95012 17.7407 8.31763 19.1691 7.62719ZM5.21737 18.7826C3.49125 18.7826 2.08694 17.3783 2.08694 15.6522C2.08694 14.4505 2.76813 13.3747 3.86469 12.8446C4.35125 12.6094 4.57769 12.0416 4.38656 11.5361C3.78637 9.94888 4.52456 8.31706 5.95162 7.62725C6.43819 7.392 6.66462 6.82425 6.4735 6.31875C5.67512 4.20731 7.26575 2.087 9.39125 2.087C11.517 2.087 13.1073 4.20725 12.309 6.31875C12.1179 6.82431 12.3443 7.392 12.8309 7.62725C14.2557 8.316 14.9969 9.94656 14.3959 11.5361C14.2049 12.0417 14.4312 12.6094 14.9178 12.8446C16.0086 13.3719 16.6956 14.4456 16.6956 15.6522C16.6956 17.3783 15.2913 18.7826 13.5651 18.7826C12.6875 18.7826 6.12137 18.7826 5.21737 18.7826ZM10.4348 25.7391H8.34787V20.8696H10.4348V25.7391ZM19.4783 25.7391H12.5218V20.8696H13.5653C14.4434 20.8696 15.271 20.6506 15.9978 20.2658C16.7449 20.6619 17.5751 20.8696 18.4348 20.8696H19.4783V25.7391H19.4783ZM23.6522 25.7391H21.5653V20.8696H23.6522V25.7391Z" fill="white"/>
<path d="M8.69563 29.9131H1.0435C0.467187 29.9131 0 30.3803 0 30.9565C0 31.5328 0.467187 32 1.0435 32H8.69563C9.27188 32 9.73913 31.5328 9.73913 30.9565C9.73913 30.3802 9.27194 29.9131 8.69563 29.9131Z" fill="white"/>
<path d="M19.8261 29.9131H12.1739C11.5977 29.9131 11.1304 30.3803 11.1304 30.9566C11.1304 31.5329 11.5976 32 12.1739 32H19.8261C20.4024 32 20.8696 31.5328 20.8696 30.9565C20.8696 30.3802 20.4024 29.9131 19.8261 29.9131Z" fill="white"/>
<path d="M30.9565 29.9131H23.3044C22.7281 29.9131 22.2609 30.3803 22.2609 30.9566C22.2609 31.5329 22.7281 32 23.3044 32H30.9566C31.5328 32 32 31.5328 32 30.9565C32 30.3802 31.5328 29.9131 30.9565 29.9131Z" fill="white"/>
</g>
<defs>
<clipPath id="clip0_6_1052">
<rect width="32" height="32" fill="white"/>
</clipPath>
</defs>
</svg>
