<svg width="32" height="32" viewBox="0 0 32 32" fill="none" xmlns="http://www.w3.org/2000/svg">
<path d="M4.6093 19.7843C5.00442 19.1632 5.5755 18.6437 6.29211 18.3096C7.62683 17.6872 9.21336 18.2647 9.83575 19.5993L12.0898 24.4332C12.7122 25.768 12.1348 27.3545 10.8 27.9769C8.79798 28.9105 6.41818 28.0443 5.4846 26.0423L4.35746 23.6251C3.75804 22.3396 3.90056 20.8984 4.6093 19.7843ZM4.6093 19.7843C4.21427 18.5947 4.00039 17.3223 4.00039 16C4.00039 9.37259 9.37298 4 16.0004 4C22.6278 4 28.0004 9.37259 28.0004 16C28.0004 17.368 27.7714 18.6827 27.3498 19.9076M27.3498 19.9076C26.9536 19.232 26.3552 18.6656 25.5917 18.3096C24.257 17.6872 22.6705 18.2647 22.0481 19.5993L19.794 24.4332C19.1716 25.768 19.749 27.3545 21.0838 27.9769C23.0858 28.9105 25.4657 28.0443 26.3992 26.0423L27.5264 23.6251C28.104 22.3865 27.9926 21.0033 27.3498 19.9076ZM23.4172 6.56543L21.3348 9.33249C19.9618 8.51612 17.7022 7.99992 16.0028 7.99992C14.269 7.99992 12.0605 8.48615 10.6694 9.33325L8.58136 6.56791" stroke="white" stroke-width="2" stroke-linejoin="round"/>
</svg>
