<svg width="32" height="32" viewBox="0 0 32 32" fill="none" xmlns="http://www.w3.org/2000/svg">
<path d="M8.00002 17.3333H8.01335M8.00002 22.6667H8.01335M13.3334 17.3333H13.3467M18.6667 17.3333H18.68M24 22.6667H24.0134M24 17.3333H24.0134M21.3334 4V6.66667H10.6667V12M13.3334 22.6667H18.6667M6.93335 28H25.0667C26.5602 28 27.307 28 27.8774 27.7093C28.3791 27.4537 28.7871 27.0457 29.0427 26.544C29.3334 25.9736 29.3334 25.2268 29.3334 23.7333V16.2667C29.3334 14.7732 29.3334 14.0264 29.0427 13.456C28.7871 12.9543 28.3791 12.5463 27.8774 12.2907C27.307 12 26.5602 12 25.0667 12H6.93335C5.43987 12 4.69314 12 4.12271 12.2907C3.62094 12.5463 3.21299 12.9543 2.95734 13.456C2.66669 14.0264 2.66669 14.7732 2.66669 16.2667V23.7333C2.66669 25.2268 2.66669 25.9736 2.95734 26.544C3.21299 27.0457 3.62094 27.4537 4.12271 27.7093C4.69314 28 5.43989 28 6.93335 28Z" stroke="white" stroke-width="2" stroke-linecap="round" stroke-linejoin="round"/>
</svg>
