<svg width="32" height="32" viewBox="0 0 32 32" fill="none" xmlns="http://www.w3.org/2000/svg">
<g clip-path="url(#clip0_6_1040)">
<path fill-rule="evenodd" clip-rule="evenodd" d="M22 22H8C8 22 1.962 21.381 2 16C2.021 12.964 4.813 10.25 8 10C8 5.858 10.651 2 15 2C18.433 2 20.723 4.09598 21.539 7.01398C26.493 6.79798 29.844 10.718 30 14C30.21 18.413 25.601 22 22 22ZM23.067 5.02802C21.599 2.05302 18.543 0 15 0C10.25 0 6.37 3.68197 6.033 8.34497C2.542 9.33997 0 12.39 0 16C0 20.26 3.54 23.731 8 23.977C8 23.977 21.831 24 22 24C27.247 24 32 19.747 32 14.5C32 9.445 28.048 5.32302 23.067 5.02802ZM25 27C24.448 27 24 27.447 24 28V31C24 31.553 24.448 32 25 32C25.552 32 26 31.553 26 31V28C26 27.447 25.552 27 25 27ZM19 27C18.448 27 18 27.447 18 28V31C18 31.553 18.448 32 19 32C19.552 32 20 31.553 20 31V28C20 27.447 19.552 27 19 27ZM7 27C6.448 27 6 27.447 6 28V31C6 31.553 6.448 32 7 32C7.552 32 8 31.553 8 31V28C8 27.447 7.552 27 7 27ZM13 27C12.448 27 12 27.447 12 28V31C12 31.553 12.448 32 13 32C13.552 32 14 31.553 14 31V28C14 27.447 13.552 27 13 27Z" fill="white"/>
</g>
<defs>
<clipPath id="clip0_6_1040">
<rect width="32" height="32" fill="white"/>
</clipPath>
</defs>
</svg>
