<svg width="32" height="32" viewBox="0 0 32 32" fill="none" xmlns="http://www.w3.org/2000/svg">
<g clip-path="url(#clip0_6_1199)">
<path d="M26.9592 13.1846H24.4592C24.1141 13.1846 23.8342 12.9048 23.8342 12.5596V1.30957C23.8342 0.964383 24.1141 0.68457 24.4592 0.68457H26.9592C27.3044 0.68457 27.5842 0.964383 27.5842 1.30957V12.5596C27.5842 12.9047 27.3044 13.1846 26.9592 13.1846ZM25.0842 11.9346H26.3342V1.93457H25.0842V11.9346Z" fill="white"/>
<path d="M26.9592 20.6846H24.4592C24.1141 20.6846 23.8342 20.4047 23.8342 20.0596V15.0596C23.8342 14.7144 24.1141 14.4346 24.4592 14.4346H26.9592C27.3044 14.4346 27.5842 14.7144 27.5842 15.0596V20.0596C27.5842 20.4048 27.3044 20.6846 26.9592 20.6846ZM25.0842 19.4346H26.3342V15.6846H25.0842V19.4346Z" fill="white"/>
<path d="M7.58417 20.6846H5.08417C4.73898 20.6846 4.45917 20.4047 4.45917 20.0596V15.0596C4.45917 14.7144 4.73898 14.4346 5.08417 14.4346H7.58417C7.92935 14.4346 8.20917 14.7144 8.20917 15.0596V20.0596C8.20917 20.4048 7.92935 20.6846 7.58417 20.6846ZM5.70917 19.4346H6.95917V15.6846H5.70917V19.4346Z" fill="white"/>
<path d="M7.58417 13.1846H5.08417C4.73898 13.1846 4.45917 12.9048 4.45917 12.5596V1.30957C4.45917 0.964383 4.73898 0.68457 5.08417 0.68457H7.58417C7.92935 0.68457 8.20917 0.964383 8.20917 1.30957V12.5596C8.20917 12.9047 7.92935 13.1846 7.58417 13.1846ZM5.70917 11.9346H6.95917V1.93457H5.70917V11.9346Z" fill="white"/>
<path d="M30.7092 15.6846H1.35028C1.00509 15.6846 0.725281 15.4048 0.725281 15.0596V12.5596C0.725281 12.2144 1.00509 11.9346 1.35028 11.9346H30.7092C31.0543 11.9346 31.3342 12.2144 31.3342 12.5596V15.0596C31.3342 15.4047 31.0543 15.6846 30.7092 15.6846ZM1.97528 14.4346H30.0842V13.1846H1.97528V14.4346Z" fill="white"/>
<path d="M1.95917 13.1846C1.61398 13.1846 1.33417 12.9048 1.33417 12.5596V5.68457C1.33417 5.33938 1.61398 5.05957 1.95917 5.05957C2.30435 5.05957 2.58417 5.33938 2.58417 5.68457V12.5596C2.58417 12.9047 2.30435 13.1846 1.95917 13.1846Z" fill="white"/>
<path d="M30.0842 13.1846C29.7391 13.1846 29.4592 12.9048 29.4592 12.5596V5.68457C29.4592 5.33938 29.7391 5.05957 30.0842 5.05957C30.4294 5.05957 30.7092 5.33938 30.7092 5.68457V12.5596C30.7092 12.9047 30.4294 13.1846 30.0842 13.1846Z" fill="white"/>
<path d="M20.7092 13.1846C20.3641 13.1846 20.0842 12.9048 20.0842 12.5596V5.68457C20.0842 5.33938 20.3641 5.05957 20.7092 5.05957C21.0544 5.05957 21.3342 5.33938 21.3342 5.68457V12.5596C21.3342 12.9047 21.0544 13.1846 20.7092 13.1846Z" fill="white"/>
<path d="M17.5842 13.1846C17.2391 13.1846 16.9592 12.9048 16.9592 12.5596V6.30957C16.9592 5.96438 17.2391 5.68457 17.5842 5.68457C17.9294 5.68457 18.2092 5.96438 18.2092 6.30957V12.5596C18.2092 12.9047 17.9294 13.1846 17.5842 13.1846Z" fill="white"/>
<path d="M14.4592 13.1846C14.114 13.1846 13.8342 12.9048 13.8342 12.5596V6.30957C13.8342 5.96438 14.114 5.68457 14.4592 5.68457C14.8044 5.68457 15.0842 5.96438 15.0842 6.30957V12.5596C15.0842 12.9047 14.8044 13.1846 14.4592 13.1846Z" fill="white"/>
<path d="M11.3342 13.1846C10.989 13.1846 10.7092 12.9048 10.7092 12.5596V5.68457C10.7092 5.33938 10.989 5.05957 11.3342 5.05957C11.6794 5.05957 11.9592 5.33938 11.9592 5.68457V12.5596C11.9592 12.9047 11.6794 13.1846 11.3342 13.1846Z" fill="white"/>
<path d="M20.7092 31.3096H9.45923C8.42535 31.3096 7.58423 30.4684 7.58423 29.4346C7.58423 29.2155 7.62198 29.0051 7.69129 28.8096H6.95923C5.92535 28.8096 5.08423 27.9684 5.08423 26.9346C5.08423 25.9007 5.92535 25.0596 6.95923 25.0596H10.0842C10.6012 25.0596 11.0217 24.639 11.0217 24.1221C11.0217 23.6051 10.6012 23.1846 10.0842 23.1846H2.58423C2.23904 23.1846 1.95923 22.9047 1.95923 22.5596V15.0596C1.95923 14.7144 2.23904 14.4346 2.58423 14.4346H29.4592C29.8044 14.4346 30.0842 14.7144 30.0842 15.0596V22.5596C30.0842 22.9047 29.8044 23.1846 29.4592 23.1846H22.2717C21.7548 23.1846 21.3342 23.6051 21.3342 24.1221C21.3342 24.639 21.7548 25.0596 22.2717 25.0596H27.5842C28.6181 25.0596 29.4592 25.9007 29.4592 26.9346C29.4592 27.9684 28.6181 28.8096 27.5842 28.8096H22.4771C22.5464 29.0051 22.5842 29.2155 22.5842 29.4346C22.5842 30.4684 21.7431 31.3096 20.7092 31.3096ZM10.0842 28.1846C10.0842 28.5297 9.80435 28.8096 9.45917 28.8096C9.11454 28.8096 8.83417 29.0899 8.83417 29.4346C8.83417 29.7792 9.11454 30.0596 9.45917 30.0596H20.7092C21.0538 30.0596 21.3342 29.7792 21.3342 29.4346C21.3342 29.0899 21.0538 28.8096 20.7092 28.8096C20.364 28.8096 20.0842 28.5297 20.0842 28.1846C20.0842 27.8394 20.364 27.5596 20.7092 27.5596H27.5842C27.9288 27.5596 28.2092 27.2792 28.2092 26.9346C28.2092 26.5899 27.9288 26.3096 27.5842 26.3096H22.2717C21.0655 26.3096 20.0842 25.3283 20.0842 24.1221C20.0842 22.9159 21.0655 21.9346 22.2717 21.9346H28.8342V15.6846H3.20917V21.9346H10.0842C11.2904 21.9346 12.2717 22.9159 12.2717 24.1221C12.2717 25.3283 11.2904 26.3096 10.0842 26.3096H6.95917C6.61454 26.3096 6.33417 26.5899 6.33417 26.9346C6.33417 27.2792 6.61454 27.5596 6.95917 27.5596H9.45917C9.80435 27.5596 10.0842 27.8394 10.0842 28.1846Z" fill="white"/>
<path d="M16.0603 6.93457C13.8691 6.93457 11.9774 6.49076 10.4379 5.61557C8.92324 4.75451 7.82118 3.51757 7.15681 1.93457H5.50981C4.67481 3.94563 3.42943 5.32082 1.61731 6.24176C1.30974 6.39801 0.933369 6.27544 0.776994 5.9677C0.620619 5.66001 0.743307 5.28376 1.05106 5.12738C2.68624 4.29638 3.78174 3.01388 4.49856 1.0912C4.58974 0.846695 4.82324 0.68457 5.08418 0.68457H7.58418C7.84799 0.68457 8.08331 0.850195 8.17243 1.09845C9.23381 4.05582 12.0351 5.68457 16.0603 5.68457C18.8727 5.68457 22.5106 4.88895 23.8709 1.09845C23.9601 0.850195 24.1954 0.68457 24.4592 0.68457H26.9592C27.2224 0.68457 27.4574 0.849445 27.5469 1.09695C28.3149 3.21957 29.1199 4.15676 30.9922 5.10801C31.3 5.26438 31.4227 5.64057 31.2664 5.94832C31.1101 6.25613 30.7337 6.37882 30.4261 6.22245C28.3959 5.19101 27.3702 4.07945 26.5269 1.93463H24.8868C23.5355 5.1637 20.4202 6.93457 16.0603 6.93457Z" fill="white"/>
</g>
<defs>
<clipPath id="clip0_6_1199">
<rect width="32" height="32" fill="white"/>
</clipPath>
</defs>
</svg>
