<svg width="32" height="32" viewBox="0 0 32 32" fill="none" xmlns="http://www.w3.org/2000/svg">
<g clip-path="url(#clip0_6_1045)">
<path d="M10.9901 4.03964C11.7044 4.21824 12.1388 4.94214 11.9602 5.65654L6.62686 26.9898C6.44827 27.7042 5.72435 28.1386 5.00997 27.96C4.29557 27.7814 3.86122 27.0576 4.03982 26.3432L9.37315 5.00978C9.55175 4.29538 10.2757 3.86104 10.9901 4.03964ZM22.6268 5.00978L27.9602 26.3432C28.1388 27.0576 27.7044 27.7814 26.99 27.96C26.2756 28.1386 25.5518 27.7042 25.3732 26.9898L20.0399 5.65654C19.8612 4.94214 20.2956 4.21824 21.01 4.03964C21.7244 3.86104 22.4483 4.29538 22.6268 5.00978ZM16 22.6665C16.6838 22.6665 17.2474 23.1812 17.3244 23.8443L17.3334 23.9998V26.6665C17.3334 27.4029 16.7364 27.9998 16 27.9998C15.3162 27.9998 14.7527 27.4851 14.6757 26.822L14.6667 26.6665V23.9998C14.6667 23.2634 15.2636 22.6665 16 22.6665ZM16 13.3332C16.7364 13.3332 17.3334 13.9301 17.3334 14.6665V17.3332C17.3334 18.0696 16.7364 18.6665 16 18.6665C15.2636 18.6665 14.6667 18.0696 14.6667 17.3332V14.6665C14.6667 13.9301 15.2636 13.3332 16 13.3332ZM16 3.99982C16.6838 3.99982 17.2474 4.51455 17.3244 5.17766L17.3334 5.33316V7.99982C17.3334 8.73621 16.7364 9.33316 16 9.33316C15.3162 9.33316 14.7527 8.81844 14.6757 8.15532L14.6667 7.99982V5.33316C14.6667 4.59678 15.2636 3.99982 16 3.99982Z" fill="white"/>
</g>
<defs>
<clipPath id="clip0_6_1045">
<rect width="32" height="32" fill="white"/>
</clipPath>
</defs>
</svg>
