<svg width="32" height="32" viewBox="0 0 32 32" fill="none" xmlns="http://www.w3.org/2000/svg">
<mask id="mask0_6_1231" style="mask-type:luminance" maskUnits="userSpaceOnUse" x="0" y="1" width="32" height="30">
<path d="M31.8458 1.27344H0.145935V30.6252H31.8458V1.27344Z" fill="white"/>
</mask>
<g mask="url(#mask0_6_1231)">
<path d="M19.8639 8.70155C20.1101 8.53028 20.3246 8.37543 20.5446 8.22867C22.7677 6.74608 25.1691 6.45128 27.7013 7.22289C30.7747 8.15954 32.0366 11.1818 31.7764 13.6133C31.5558 15.6781 30.5371 17.3443 29.0439 18.736C28.4631 19.2775 27.7152 19.5775 26.9516 19.7308C25.5583 20.0103 24.1546 20.2624 22.7437 20.4236C19.1485 20.8346 15.5315 20.8161 11.9193 20.8729C10.2215 20.899 8.52758 20.8695 6.86992 20.4449C6.375 20.3181 5.88073 20.1787 5.40132 20.0039C3.29439 19.2352 1.8075 17.8239 1.00391 15.7219C-0.259133 12.4186 -0.0846226 9.19503 1.82885 6.20857C3.42468 3.71786 5.72114 1.98642 8.67472 1.47713C12.3903 0.836482 15.533 2.03929 17.9457 4.97602C18.737 5.94285 19.3293 7.05657 19.6885 8.25314C19.7317 8.39453 19.796 8.52963 19.8639 8.70155ZM12.7008 18.8955C13.5702 18.8618 14.4407 18.8433 15.3091 18.7912C18.226 18.6167 21.1403 18.4025 24.0596 18.2635C25.1063 18.2114 26.1281 17.9256 27.0501 17.4269C28.6962 16.5607 29.5479 15.1804 29.6362 13.3515C29.7336 11.3357 28.7571 9.47854 26.4131 9.01166C24.455 8.62159 22.6331 8.95076 21.0793 10.2763C20.5728 10.7082 20.132 11.2166 19.6581 11.6872C19.5133 11.8551 19.349 12.0051 19.1686 12.134C18.6768 12.4269 18.1 12.239 17.9102 11.7017C17.8259 11.4557 17.8193 11.1896 17.8913 10.9398C18.154 10.131 18.047 9.36014 17.7649 8.59073C17.4028 7.58209 16.8451 6.65484 16.1238 5.8622C14.0591 3.61306 11.4886 2.88275 8.53683 3.49366C7.36563 3.73605 6.36154 4.38684 5.41903 5.11463C2.26457 7.55031 1.57069 10.9734 2.38627 14.2245C2.8486 16.0659 3.88645 17.4977 5.7672 18.1457C6.4609 18.3849 7.17178 18.5715 7.89361 18.7035C9.48381 18.9935 11.0932 18.9421 12.7008 18.8955Z" fill="white"/>
<path d="M15.1654 23.5153C14.6318 23.5125 14.1632 23.0693 14.1625 22.5664C14.1764 22.2886 14.2935 22.0258 14.491 21.8296C14.6884 21.6333 14.9519 21.518 15.23 21.5059C15.4861 21.5176 15.7277 21.6281 15.9043 21.8137C16.081 21.9996 16.1789 22.2464 16.1776 22.5028C16.1758 22.7708 16.0687 23.0272 15.8791 23.2168C15.6897 23.4064 15.4334 23.5135 15.1654 23.5153Z" fill="white"/>
<path d="M5.64943 28.2862C5.10309 28.2938 4.59043 27.8623 4.58352 27.3893C4.57622 26.8995 5.06346 26.4692 5.62193 26.4722C6.14764 26.4748 6.59479 26.8824 6.60458 27.3676C6.61448 27.8549 6.17294 28.2791 5.64943 28.2862Z" fill="white"/>
<path d="M20.0038 23.5921C20.0058 23.3381 20.1085 23.0954 20.2894 22.9171C20.4703 22.7388 20.7148 22.6396 20.9686 22.6416C21.2226 22.6436 21.4655 22.7464 21.6437 22.9272C21.822 23.1081 21.921 23.3526 21.919 23.6064C21.9071 23.8642 21.7958 24.1071 21.6086 24.2844C21.4213 24.4617 21.1725 24.5594 20.9147 24.5573C20.6678 24.5443 20.4355 24.4368 20.266 24.2571C20.0962 24.0775 20.0024 23.8391 20.0038 23.5921Z" fill="white"/>
<path d="M24.4454 27.4922C23.907 27.4972 23.4304 27.0438 23.4425 26.538C23.4538 26.303 23.5518 26.0804 23.7176 25.9133C23.8833 25.7461 24.1049 25.6463 24.3401 25.6332C24.8853 25.6169 25.4287 26.0979 25.4239 26.5926C25.4193 27.077 24.9729 27.4872 24.4454 27.4922Z" fill="white"/>
<path d="M26.0277 22.8477C25.5002 22.8544 25.1089 22.4879 25.1194 21.9968C25.1301 21.4957 25.5982 21.076 26.1531 21.0704C26.684 21.0644 27.0635 21.4228 27.0563 21.9233C27.0488 22.4327 26.596 22.8405 26.0277 22.8477Z" fill="white"/>
<path d="M14.7595 30.6113C14.6372 30.6099 14.5164 30.5841 14.4043 30.5356C14.2921 30.4871 14.1906 30.4167 14.1058 30.3287C14.021 30.2404 13.9546 30.1363 13.9104 30.0224C13.8663 29.9083 13.8453 29.7866 13.8485 29.6644C13.8573 29.1208 14.2191 28.8163 14.8312 28.8364C15.3503 28.8535 15.7444 29.2323 15.7405 29.7091C15.7366 30.1858 15.2622 30.6206 14.7595 30.6113Z" fill="white"/>
<path d="M9.50209 29.6219C9.51137 29.8678 9.42491 30.1077 9.26099 30.2912C9.09708 30.4748 8.86843 30.5875 8.62308 30.606C8.50655 30.6124 8.38996 30.5943 8.28094 30.5525C8.17192 30.511 8.07292 30.4468 7.99036 30.3643C7.90781 30.282 7.84359 30.183 7.80187 30.0739C7.76017 29.965 7.74187 29.8485 7.74825 29.7319C7.75542 29.1883 8.13807 28.7502 8.61956 28.7339C8.73604 28.7335 8.85145 28.7564 8.95906 28.8009C9.06669 28.8454 9.16438 28.9108 9.24649 28.9935C9.32859 29.0762 9.39343 29.1741 9.43731 29.2821C9.48118 29.39 9.50324 29.5055 9.50209 29.6219Z" fill="white"/>
<path d="M18.7314 27.097C18.7234 27.3449 18.6182 27.5796 18.4385 27.7503C18.2588 27.9213 18.0191 28.0145 17.7711 28.0101C17.5305 27.9928 17.3062 27.8817 17.1468 27.7006C16.9873 27.5196 16.9052 27.2833 16.9184 27.0424C16.9314 26.8013 17.0388 26.5751 17.217 26.4127C17.3953 26.2501 17.6303 26.1641 17.8713 26.173C18.1072 26.1837 18.3293 26.2865 18.4901 26.4592C18.6509 26.6321 18.7377 26.8609 18.7314 27.097Z" fill="white"/>
<path d="M12.8539 27.2868C12.859 27.4085 12.8391 27.5301 12.7955 27.6438C12.7518 27.7575 12.6853 27.8612 12.6 27.9485C12.5148 28.0355 12.4126 28.1043 12.2997 28.1504C12.1869 28.1965 12.0658 28.219 11.944 28.2166C11.4463 28.2098 11.0601 27.7768 11.072 27.2389C11.0775 27.0153 11.1678 26.8022 11.3245 26.6428C11.4813 26.4834 11.6929 26.3894 11.9163 26.3801C12.0381 26.3753 12.1596 26.3954 12.2734 26.4387C12.3873 26.4822 12.4912 26.5482 12.5788 26.6331C12.6664 26.7178 12.736 26.8193 12.7833 26.9316C12.8306 27.0439 12.8546 27.1648 12.8539 27.2868Z" fill="white"/>
<path d="M4.14213 20.937C4.25359 20.9332 4.3647 20.9524 4.46851 20.9932C4.5723 21.034 4.66659 21.0955 4.74564 21.1743C4.82472 21.253 4.88682 21.347 4.92816 21.4505C4.96946 21.5543 4.98914 21.6652 4.98592 21.7767C4.97651 22.2829 4.49516 22.7198 3.95536 22.7126C3.84938 22.7172 3.7436 22.6997 3.64472 22.6614C3.54582 22.623 3.45594 22.5648 3.38069 22.49C3.30542 22.4153 3.24641 22.3259 3.20735 22.2273C3.1683 22.1287 3.15003 22.0229 3.15373 21.917C3.16653 21.6598 3.27499 21.4167 3.45787 21.2353C3.64076 21.054 3.8848 20.9475 4.14213 20.937Z" fill="white"/>
<path d="M9.22856 23.8256C9.24488 24.2932 8.89874 24.6516 8.40081 24.6824C8.27945 24.6923 8.15739 24.6774 8.04199 24.6385C7.9266 24.5997 7.82028 24.5377 7.72957 24.4566C7.63885 24.3753 7.56563 24.2765 7.51433 24.166C7.46303 24.0557 7.43477 23.9361 7.43121 23.8142C7.42247 23.339 7.73032 22.9771 8.16276 22.954C8.69919 22.9256 9.21238 23.3448 9.22856 23.8256Z" fill="white"/>
<path d="M21.2025 28.8538C21.3023 28.8542 21.4011 28.8749 21.4927 28.9144C21.5843 28.954 21.667 29.0116 21.7358 29.084C21.8045 29.1563 21.858 29.242 21.8928 29.3354C21.9276 29.429 21.9433 29.5286 21.9385 29.6286C21.9327 30.1962 21.6002 30.6055 21.1484 30.6007C20.6967 30.5959 20.3135 30.1539 20.318 29.6479C20.3226 29.184 20.7036 28.8417 21.2025 28.8538Z" fill="white"/>
</g>
</svg>
