<svg width="32" height="32" viewBox="0 0 32 32" fill="none" xmlns="http://www.w3.org/2000/svg">
<path fill-rule="evenodd" clip-rule="evenodd" d="M24.0027 23.3019C23.8605 23.6455 23.6519 23.9576 23.389 24.2206C23.1261 24.4835 22.8139 24.692 22.4703 24.8343C22.1269 24.9766 21.7586 25.0498 21.3869 25.0498C21.0186 25.0498 20.7202 24.7514 20.7202 24.3831C20.7202 24.015 21.0186 23.7164 21.3869 23.7164C21.5835 23.7164 21.7783 23.6778 21.9601 23.6024C22.1419 23.5272 22.307 23.4168 22.4462 23.2778C22.5853 23.1386 22.6957 22.9735 22.7709 22.7916C22.8462 22.6099 22.885 22.4151 22.885 22.2184C22.885 21.8502 23.1834 21.5518 23.5517 21.5518C23.9198 21.5518 24.2183 21.8502 24.2183 22.2184C24.2183 22.5902 24.145 22.9584 24.0027 23.3019Z" fill="white"/>
<path fill-rule="evenodd" clip-rule="evenodd" d="M5.99721 8.6981C6.1395 8.35458 6.34806 8.04244 6.61098 7.77952C6.8739 7.5166 7.18605 7.30802 7.52957 7.16573C7.8731 7.02344 8.24129 6.9502 8.61313 6.9502C8.98132 6.9502 9.2798 7.24868 9.2798 7.61686C9.2798 7.98506 8.98132 8.28353 8.61313 8.28353C8.41638 8.28353 8.22158 8.32229 8.03982 8.39757C7.85806 8.47286 7.6929 8.58321 7.5538 8.72233C7.41468 8.86144 7.30433 9.02658 7.22905 9.20834C7.15376 9.3901 7.11501 9.58492 7.11501 9.78165C7.11501 10.1498 6.81653 10.4483 6.44834 10.4483C6.08016 10.4483 5.78168 10.1498 5.78168 9.78165C5.78168 9.40982 5.85492 9.04164 5.99721 8.6981Z" fill="white"/>
<path fill-rule="evenodd" clip-rule="evenodd" d="M25.4142 4.47152C24.6332 3.69048 23.3668 3.69048 22.5858 4.47152L17.8717 9.18558C17.0906 9.96662 17.0906 11.2329 17.8717 12.014L18.4576 12.5998L17.9113 13.1461L14.3256 9.56036C13.5445 8.77931 12.2782 8.77931 11.4971 9.56036L8.94334 12.1141C8.1623 12.8952 8.1623 14.1615 8.94334 14.9426L12.5291 18.5283L12 19.0574L11.4142 18.4715C10.6332 17.6904 9.36683 17.6904 8.58578 18.4715L3.87174 23.1856C3.09069 23.9666 3.09069 25.233 3.87174 26.014L5.75735 27.8996C6.53841 28.6807 7.80473 28.6807 8.58578 27.8996L13.2998 23.1856C14.0809 22.4046 14.0809 21.1382 13.2998 20.3571L12.9428 20.0002L13.4718 19.4711L16.4858 22.4851C17.2669 23.266 18.5332 23.266 19.3142 22.4851L21.868 19.9312C22.649 19.1502 22.649 17.8839 21.868 17.1028L18.8541 14.089L19.4004 13.5426L19.7573 13.8996C20.5384 14.6807 21.8048 14.6807 22.5858 13.8996L27.2998 9.18558C28.0809 8.40452 28.0809 7.13819 27.2998 6.35715L25.4142 4.47152ZM11.5231 20.466L11.5286 20.4716L11.5341 20.4771L12.357 21.2999C12.6174 21.5603 12.6174 21.9824 12.357 22.2428L7.64297 26.9568C7.38262 27.2171 6.96051 27.2171 6.70017 26.9568L4.81454 25.0712C4.55419 24.8108 4.55419 24.3887 4.81454 24.1284L9.52859 19.4143C9.78894 19.154 10.211 19.154 10.4714 19.4143L11.5231 20.466ZM23.5286 5.41434C23.7889 5.15399 24.211 5.15399 24.4714 5.41434L26.357 7.29995C26.6173 7.56031 26.6173 7.98242 26.357 8.24276L21.6429 12.9568C21.3826 13.2172 20.9605 13.2172 20.7001 12.9568L18.8145 11.0712C18.5542 10.8108 18.5542 10.3887 18.8145 10.1284L23.5286 5.41434ZM9.88615 13.9998C9.62581 13.7394 9.62581 13.3173 9.88615 13.0569L12.4399 10.5032C12.7003 10.2428 13.1224 10.2428 13.3828 10.5032L20.9252 18.0456C21.1856 18.306 21.1856 18.7282 20.9252 18.9884L18.3714 21.5422C18.111 21.8026 17.6889 21.8026 17.4286 21.5422L9.88615 13.9998Z" fill="white"/>
</svg>
