<svg width="32" height="32" viewBox="0 0 32 32" fill="none" xmlns="http://www.w3.org/2000/svg">
<g clip-path="url(#clip0_6_1121)">
<path d="M25.805 8.06146C25.9416 8.06146 26.0781 8.00921 26.1821 7.90521L26.5591 7.52816C26.7677 7.3196 26.7677 6.98254 26.5591 6.77405C26.3506 6.56555 26.0135 6.56555 25.805 6.77405L25.428 7.1511C25.2194 7.35966 25.2194 7.69672 25.428 7.90521C25.532 8.00921 25.6685 8.06146 25.805 8.06146Z" fill="white"/>
<path d="M16 2.93346C16.2949 2.93346 16.5333 2.69453 16.5333 2.40016V1.8668C16.5333 1.57243 16.2949 1.3335 16 1.3335C15.705 1.3335 15.4667 1.57243 15.4667 1.8668V2.4001C15.4667 2.69453 15.7051 2.93346 16 2.93346Z" fill="white"/>
<path d="M5.81796 7.90521C5.92196 8.00921 6.05852 8.06146 6.19501 8.06146C6.33157 8.06146 6.46807 8.00921 6.57207 7.90521C6.78062 7.69665 6.78062 7.3596 6.57207 7.1511L6.19501 6.77405C5.98645 6.56555 5.6494 6.56555 5.4409 6.77405C5.23235 6.98261 5.23235 7.31966 5.4409 7.52816L5.81796 7.90521Z" fill="white"/>
<path d="M0.533667 17.8663H6.40035H25.5999H31.4663C31.7612 17.8663 31.9996 17.6274 31.9996 17.333C31.9996 17.0387 31.7612 16.7997 31.4663 16.7997H26.1192C25.9946 14.4067 25.0356 12.2311 23.5287 10.5583L24.6737 9.41376C24.8823 9.20576 24.8823 8.86765 24.6737 8.65965C24.4657 8.45109 24.1281 8.45109 23.9196 8.65965L22.7746 9.80419C21.1017 8.29741 18.9261 7.33862 16.5333 7.21393V4.5333C16.5333 4.23893 16.295 4 16 4C15.7051 4 15.4667 4.23893 15.4667 4.5333V7.21393C13.0738 7.33862 10.8983 8.29747 9.22548 9.80425L8.08044 8.65965C7.87195 8.45109 7.53433 8.45109 7.32633 8.65965C7.11778 8.86765 7.11778 9.20576 7.32633 9.41376L8.47137 10.5584C6.96459 12.2312 6.0058 14.4068 5.88111 16.7997H0.533667C0.238736 16.7997 0.000366223 17.0387 0.000366223 17.333C0.000303725 17.6274 0.238736 17.8663 0.533667 17.8663ZM16.0001 8.26653C20.8203 8.26653 24.7738 12.0478 25.0506 16.7997H6.94915C7.22646 12.0478 11.18 8.26653 16.0001 8.26653Z" fill="white"/>
<path d="M31.7048 20.0556L30.5293 19.4679C29.7854 19.0956 28.9139 19.0594 28.1411 19.3687L27.4628 19.6401C26.9705 19.8363 26.4186 19.8129 25.9481 19.5772L25.8393 19.5228C25.5748 19.39 25.2553 19.4972 25.1231 19.7601C24.9908 20.023 25.0975 20.3436 25.3604 20.4758L25.4703 20.5313C26.2143 20.9035 27.0857 20.9398 27.8585 20.6305L28.5368 20.359C29.0275 20.1628 29.5795 20.1857 30.0525 20.422L31.228 21.0102C31.3042 21.0481 31.3858 21.0662 31.4658 21.0662C31.6616 21.0662 31.8498 20.9584 31.9437 20.7713C32.0754 20.5079 31.9682 20.1879 31.7048 20.0556Z" fill="white"/>
<path d="M18.961 19.5231C18.4432 19.7823 17.8234 19.7823 17.3045 19.5225C16.4875 19.114 15.5109 19.1145 14.6949 19.5225C14.4315 19.6543 14.3243 19.9748 14.456 20.2382C14.5882 20.5017 14.9082 20.6084 15.1717 20.4766C15.6896 20.2174 16.3093 20.2174 16.8283 20.4772C17.2363 20.6814 17.6842 20.7833 18.1327 20.7833C18.5812 20.7833 19.0298 20.6809 19.4388 20.4766C19.9567 20.2169 20.5759 20.2174 21.0948 20.4766C21.3582 20.6084 21.6782 20.5012 21.8105 20.2377C21.9423 19.9743 21.8351 19.6537 21.5716 19.5225C20.7541 19.114 19.7786 19.1146 18.961 19.5231Z" fill="white"/>
<path d="M0.533686 21.0664C0.59981 21.0664 0.666996 21.0542 0.731557 21.028L2.40402 20.3592C2.89414 20.1624 3.44669 20.1859 3.91974 20.4222L4.02855 20.4765C4.84559 20.8851 5.82107 20.8851 6.63918 20.4765C7.15704 20.2168 7.77622 20.2174 8.29515 20.4765C9.11219 20.8851 10.0877 20.8851 10.9058 20.4765C11.1692 20.3443 11.2759 20.0243 11.1441 19.7608C11.0119 19.4979 10.6919 19.3912 10.4279 19.5224C9.91005 19.7816 9.29087 19.7816 8.77195 19.5224C7.9549 19.1144 6.97949 19.1134 6.16132 19.5224C5.64345 19.7822 5.02428 19.7816 4.50535 19.5224L4.39654 19.4681C3.65256 19.0953 2.78058 19.0595 2.00834 19.3689L0.335878 20.0377C0.0622589 20.147 -0.0710508 20.4574 0.0382594 20.731C0.121945 20.9395 0.322503 21.0664 0.533686 21.0664Z" fill="white"/>
<path d="M25.4703 23.7311C25.8794 23.9359 26.3268 24.0389 26.7753 24.0389C27.1423 24.0389 27.5108 23.9696 27.8585 23.8304L28.5369 23.5589C28.8099 23.4496 28.9432 23.1391 28.8339 22.8656C28.7246 22.592 28.4116 22.4592 28.1411 22.569L27.4628 22.84C26.9705 23.0368 26.4185 23.0133 25.9481 22.7776L25.8382 22.7221C25.0201 22.3136 24.0446 22.3142 23.2276 22.7227C22.7097 22.9825 22.0906 22.9819 21.5716 22.7227L21.0954 23.6768C21.9119 24.0854 22.8879 24.0854 23.7055 23.6763C24.2238 23.4171 24.8431 23.4171 25.3604 23.6758L25.4703 23.7311Z" fill="white"/>
<path d="M15.4107 22.9607C15.2785 22.6973 14.9585 22.5911 14.695 22.7224C14.1755 22.9821 13.5574 22.9821 13.0379 22.7224C12.2209 22.3138 11.2449 22.3138 10.4279 22.7229C9.91 22.9816 9.29083 22.9821 8.7719 22.7224C8.50847 22.5912 8.18898 22.6973 8.05617 22.9607C7.92442 23.2247 8.03161 23.5447 8.2951 23.6765C9.11215 24.085 10.0876 24.085 10.9057 23.6765C11.4236 23.4167 12.0423 23.4167 12.5623 23.677C12.9708 23.8813 13.4188 23.9831 13.8668 23.9831C14.3153 23.9831 14.7633 23.8808 15.1718 23.6765C15.4353 23.5447 15.5424 23.2247 15.4107 22.9607Z" fill="white"/>
<path d="M0.533686 24.2666C0.59981 24.2666 0.666996 24.2543 0.731557 24.2282L2.40402 23.5594C2.89414 23.3626 3.44669 23.3861 3.91974 23.6223L4.02855 23.6767C4.29148 23.8085 4.61197 23.7018 4.74428 23.4383C4.87603 23.1749 4.76885 22.8544 4.50535 22.7226L4.39654 22.6682C3.65256 22.2954 2.78058 22.2597 2.00834 22.569L0.335878 23.2378C0.0622589 23.3472 -0.0710508 23.6576 0.0382594 23.9311C0.121945 24.1396 0.322503 24.2666 0.533686 24.2666Z" fill="white"/>
<path d="M31.7048 26.4555L30.5293 25.8678C29.7854 25.4955 28.9139 25.4593 28.1411 25.7686L27.4628 26.04C26.9705 26.2362 26.4186 26.2133 25.9481 25.9771L25.8393 25.9227C25.5748 25.7904 25.2553 25.8971 25.1231 26.16C24.9908 26.4229 25.0975 26.7434 25.3604 26.8757L25.4703 26.9312C26.2143 27.3034 27.0857 27.3397 27.8585 27.0304L28.5368 26.7589C29.0275 26.5621 29.5795 26.5856 30.0525 26.8219L31.228 27.4101C31.3042 27.448 31.3858 27.4661 31.4658 27.4661C31.6616 27.4661 31.8498 27.3583 31.9437 27.1712C32.0754 26.9078 31.9682 26.5878 31.7048 26.4555Z" fill="white"/>
<path d="M18.1327 27.1833C18.5813 27.1833 19.0298 27.0809 19.4388 26.8766C19.7023 26.7448 19.8089 26.4248 19.6772 26.1608C19.5455 25.8974 19.2244 25.7907 18.961 25.923C18.4431 26.1822 17.8234 26.1822 17.3044 25.9224C16.4874 25.5139 15.5109 25.5144 14.6949 25.9224C14.4314 26.0542 14.3242 26.3747 14.4559 26.6381C14.5882 26.9021 14.9082 27.0088 15.1717 26.8765C15.6895 26.6173 16.3093 26.6173 16.8282 26.8771C17.2363 27.0814 17.6842 27.1833 18.1327 27.1833Z" fill="white"/>
<path d="M9.01084 26.638C9.14259 26.3746 9.0354 26.0541 8.77191 25.9223C7.95486 25.5143 6.97945 25.5138 6.16128 25.9229C5.64341 26.1821 5.02424 26.1821 4.50531 25.9223L4.3965 25.8679C3.65252 25.4951 2.78054 25.4595 2.0083 25.7688C1.73468 25.8781 1.60137 26.1885 1.71068 26.4616C1.81999 26.7357 2.13255 26.8669 2.40398 26.7592C2.8941 26.5619 3.44665 26.5853 3.9197 26.8221L4.02851 26.8765C4.43706 27.0807 4.88505 27.1832 5.33354 27.1832C5.78153 27.1832 6.23059 27.0808 6.63914 26.8765C7.157 26.6167 7.77618 26.6173 8.2951 26.8765C8.5586 27.0087 8.87803 26.902 9.01084 26.638Z" fill="white"/>
<path d="M31.7048 29.6557L30.5294 29.068C29.7854 28.6957 28.914 28.6594 28.1412 28.9688L27.4628 29.2403C26.9716 29.4365 26.4196 29.4131 25.9471 29.1773C25.6836 29.0451 25.3642 29.1523 25.2319 29.4157C25.0997 29.6791 25.2068 29.9997 25.4703 30.1315C26.2143 30.5037 27.0857 30.5399 27.8585 30.2306L28.5368 29.9592C29.0275 29.7624 29.5795 29.7853 30.0526 30.0221L31.228 30.6104C31.3042 30.6483 31.3858 30.6664 31.4658 30.6664C31.6616 30.6664 31.8498 30.5586 31.9437 30.3714C32.0754 30.108 31.9682 29.788 31.7048 29.6557Z" fill="white"/>
<path d="M21.5716 29.1225C20.754 28.714 19.7786 28.7145 18.9609 29.1231C18.4431 29.3823 17.8234 29.3823 17.3044 29.1225C17.0421 28.9914 16.7215 29.0975 16.5893 29.3615C16.4575 29.625 16.5647 29.9455 16.8282 30.0772C17.2362 30.2815 17.6842 30.3833 18.1327 30.3833C18.5811 30.3833 19.0297 30.281 19.4388 30.0766C19.9566 29.8169 20.5758 29.8175 21.0947 30.0766C21.3581 30.2084 21.6781 30.1017 21.8105 29.8377C21.9423 29.5742 21.8351 29.2537 21.5716 29.1225Z" fill="white"/>
<path d="M13.0379 29.1222C12.2209 28.7137 11.2449 28.7137 10.4279 29.1228C9.91 29.382 9.29083 29.382 8.7719 29.1228C8.50847 28.991 8.18848 29.0977 8.05617 29.3611C7.92442 29.6246 8.03161 29.9451 8.2951 30.0769C8.70309 30.2811 9.15165 30.383 9.59964 30.383C10.0482 30.383 10.4967 30.2811 10.9057 30.0763C11.4236 29.8171 12.0423 29.8171 12.5623 30.0769C12.8252 30.2086 13.1446 30.1019 13.2774 29.8385C13.4092 29.5745 13.3014 29.254 13.0379 29.1222Z" fill="white"/>
<path d="M4.50535 29.1225L4.39654 29.0682C3.65256 28.6954 2.78058 28.6596 2.00834 28.969L0.335878 29.6378C0.0622589 29.7471 -0.0710508 30.0575 0.0382594 30.3311C0.122008 30.5396 0.322503 30.6665 0.533686 30.6665C0.59981 30.6665 0.666996 30.6543 0.731557 30.6281L2.40402 29.9593C2.89414 29.7625 3.44669 29.7855 3.91974 30.0223L4.02855 30.0766C4.29148 30.2084 4.61197 30.1017 4.74428 29.8383C4.87597 29.5748 4.76878 29.2543 4.50535 29.1225Z" fill="white"/>
</g>
<defs>
<clipPath id="clip0_6_1121">
<rect width="32" height="32" fill="white"/>
</clipPath>
</defs>
</svg>
