<svg width="32" height="32" viewBox="0 0 32 32" fill="none" xmlns="http://www.w3.org/2000/svg">
<g clip-path="url(#clip0_6_1143)">
<path d="M7.49331 8.50586C3.3615 8.50586 0 11.8675 0 15.9995C0 20.1314 3.35381 23.4929 7.47631 23.4929C8.82219 23.4929 10.1508 23.1324 11.2174 22.4778L11.45 22.335V21.002H10.9623C9.84912 21.002 8.78887 20.0842 8.53744 18.9862H14.3664L14.4862 18.6725C14.8181 17.8032 14.9865 16.9035 14.9865 15.9982C14.9865 11.867 11.6251 8.50586 7.49331 8.50586ZM13.6862 18.0109H7.4835V18.4985C7.4835 20.0781 8.72456 21.5359 10.2256 21.9033C9.402 22.3017 8.452 22.5175 7.47625 22.5175C3.89163 22.5175 0.975375 19.5935 0.975375 15.9995C0.975375 12.4053 3.89925 9.48123 7.49325 9.48123C11.0872 9.48123 14.0111 12.4047 14.0111 15.9982C14.0111 16.6762 13.9019 17.3517 13.6862 18.0109Z" fill="white"/>
<path d="M12.0353 12.5098H8.50677V12.9975C8.50677 14.9219 10.0725 16.4875 11.9968 16.4875H12.0353V15.5121H11.9968C10.777 15.5121 9.75734 14.6391 9.52959 13.4851H12.0353V12.5098Z" fill="white"/>
<path d="M12.0354 13.9795H10.995V14.9549H12.0354V13.9795Z" fill="white"/>
<path d="M24.5067 8.50586C20.3749 8.50586 17.0135 11.867 17.0135 15.9982C17.0135 16.9665 17.2072 17.6734 17.503 18.6411L17.6085 18.9863H23.4574C23.192 20.0565 22.1079 21.002 21.0411 21.002H20.5534V22.3351L20.786 22.4779C21.8526 23.1325 23.1807 23.493 24.5254 23.493C28.6469 23.493 32 20.1314 32 15.9995C32 11.8675 28.6386 8.50586 24.5067 8.50586ZM24.5319 22.5176C23.5526 22.5176 22.594 22.2998 21.7682 21.8979C23.2354 21.5145 24.5199 20.0187 24.5199 18.4986V18.0109H18.3317C18.1161 17.2807 17.9897 16.7231 17.9897 15.9983C17.9897 12.4048 20.9144 9.4813 24.5084 9.4813C28.1023 9.4813 31.0279 12.4054 31.0279 15.9995C31.0279 19.5935 28.1156 22.5176 24.5319 22.5176Z" fill="white"/>
<path d="M19.9683 12.5098V13.4851H22.4704C22.2428 14.6391 21.223 15.5121 20.0031 15.5121H19.9681V16.4875H20.0031C21.9275 16.4875 23.4932 14.9219 23.4932 12.9975V12.5098H19.9683Z" fill="white"/>
<path d="M21.0088 13.9795H19.9684V14.9549H21.0088V13.9795Z" fill="white"/>
<path d="M24.0063 0H16.5004C14.3001 0 12.5099 1.79012 12.5099 3.9905V8.82769C12.5099 9.4645 13.028 9.98256 13.6648 9.98256C14.0264 9.98256 14.3718 9.80987 14.5887 9.52056L15.7434 7.98094H24.0063C26.2067 7.98094 27.9968 6.19088 27.9968 3.9905C27.9968 1.79012 26.2067 0 24.0063 0ZM24.0064 7.00556H15.2558L13.8084 8.93538C13.7748 8.98031 13.7211 9.00725 13.6649 9.00725C13.5659 9.00725 13.4853 8.92675 13.4853 8.82769V3.9905C13.4853 2.32794 14.8378 0.975375 16.5004 0.975375H24.0064C25.6689 0.975375 27.0215 2.32794 27.0215 3.9905C27.0215 5.653 25.6689 7.00556 24.0064 7.00556Z" fill="white"/>
<path d="M18.8355 22.0176C18.474 22.0176 18.1287 22.1902 17.9117 22.4795L16.757 24.0191H8.49398C6.2936 24.0191 4.50348 25.8093 4.50348 28.0096C4.50348 30.21 6.29367 32.0001 8.49398 32.0001H16C18.2004 32.0001 19.9905 30.21 19.9905 28.0096V23.1725C19.9905 22.5357 19.4724 22.0176 18.8355 22.0176ZM19.0151 28.0096C19.0151 29.6721 17.6625 31.0247 16 31.0247H8.49398C6.83142 31.0247 5.47885 29.6721 5.47885 28.0096C5.47885 26.3471 6.83142 24.9945 8.49398 24.9945H17.2446L18.6919 23.0648C18.7256 23.0198 18.7793 22.9929 18.8355 22.9929C18.9345 22.9929 19.015 23.0734 19.015 23.1724V28.0096H19.0151Z" fill="white"/>
<path d="M20.4886 1.94971H15.4817V2.92508H20.4886V1.94971Z" fill="white"/>
<path d="M25.0403 3.44531H15.4817V4.42069H25.0403V3.44531Z" fill="white"/>
<path d="M23.5447 1.94971H21.529V2.92508H23.5447V1.94971Z" fill="white"/>
<path d="M18.993 5.00586H15.4817V5.98123H18.993V5.00586Z" fill="white"/>
<path d="M11.5152 26.0742H8.00385V27.0496H11.5152V26.0742Z" fill="white"/>
<path d="M16.0019 26.0742H12.4905V27.0496H16.0019V26.0742Z" fill="white"/>
<path d="M13.9861 27.5698H8.00385V28.5452H13.9861V27.5698Z" fill="white"/>
<path d="M8.97922 29.0654H8.00385V30.0408H8.97922V29.0654Z" fill="white"/>
<path d="M10.995 29.0654H9.95465V30.0408H10.995V29.0654Z" fill="white"/>
<path d="M13.0108 29.0654H11.9704V30.0408H13.0108V29.0654Z" fill="white"/>
</g>
<defs>
<clipPath id="clip0_6_1143">
<rect width="32" height="32" fill="white"/>
</clipPath>
</defs>
</svg>
