<svg width="32" height="32" viewBox="0 0 32 32" fill="none" xmlns="http://www.w3.org/2000/svg">
<g clip-path="url(#clip0_6_1250)">
<path d="M19.9904 4.46236C20.2261 4.4853 20.4666 4.52316 20.705 4.57596C23.1157 5.10716 24.7994 7.26396 24.7994 9.83996C24.7989 10.0144 24.7861 10.1194 24.7669 10.2938C24.7536 10.4085 24.7381 10.5482 24.7205 10.7429C24.7072 10.8922 24.7573 11.04 24.8581 11.1509C24.9589 11.2618 25.1018 11.3248 25.2517 11.3248H26.2442C26.5392 11.3248 26.7781 11.0858 26.7781 10.7914C26.7781 10.497 26.5397 10.2581 26.2448 10.2581H25.8437C25.8576 10.1189 25.8656 9.99996 25.8661 9.82236C25.8661 6.75943 23.8378 4.17383 20.9344 3.53436C20.6544 3.47303 20.3717 3.4277 20.0938 3.40103C19.7962 3.37223 19.5397 3.58663 19.5114 3.87996C19.4826 4.1733 19.697 4.4341 19.9904 4.46236Z" fill="white"/>
<path d="M2.95736 3.68619C3.09656 3.68619 3.23523 3.63179 3.33976 3.52352C3.57176 3.28512 3.82029 3.05899 4.07843 2.85312C4.30883 2.66965 4.34669 2.33419 4.16323 2.10379C3.97923 1.87392 3.64429 1.83499 3.41389 2.01952C3.12003 2.25365 2.83789 2.50965 2.57443 2.78112C2.36909 2.99232 2.37443 3.33045 2.58616 3.53579C2.68963 3.63605 2.82349 3.68619 2.95736 3.68619Z" fill="white"/>
<path d="M16.9221 4.98092C16.9968 4.98092 17.0741 4.96492 17.1466 4.93079C17.4378 4.79532 17.744 4.68545 18.0576 4.60492C18.3429 4.53132 18.5152 4.24065 18.4416 3.95532C18.368 3.66999 18.0741 3.49932 17.792 3.57185C17.4149 3.66892 17.0458 3.80065 16.6965 3.96385C16.4293 4.08812 16.3141 4.40545 16.4384 4.67265C16.5285 4.86679 16.721 4.98092 16.9221 4.98092Z" fill="white"/>
<path d="M31.3995 12.2747C31.2512 12.0203 30.9248 11.9339 30.6704 12.0827C30.416 12.2304 30.3301 12.5579 30.4779 12.8128C30.7755 13.3248 30.9333 13.9189 30.9333 14.528C30.9333 16.2928 29.6171 17.7317 28.0005 17.7317C27.968 17.7317 26.8059 17.7248 25.0693 17.7248C25.0683 17.7248 25.0677 17.7248 25.0667 17.7248C24.7733 17.7248 24.5349 17.9547 24.5333 18.2485C24.5317 18.5429 24.7691 18.7755 25.064 18.7771C26.8144 18.7856 27.9824 18.7915 28 18.7915C30.2059 18.7915 32 16.8779 32 14.5248C32 13.7275 31.792 12.9499 31.3995 12.2747Z" fill="white"/>
<path d="M2.608 15.3527C2.73067 15.3527 2.85493 15.3105 2.9552 15.2241C3.17867 15.0321 3.20373 14.6956 3.01227 14.4721C1.75787 13.0087 1.06667 11.1308 1.06667 9.18306C1.06667 7.74893 1.43787 6.34306 2.14027 5.11693C2.28747 4.86146 2.1984 4.53559 1.94293 4.38893C1.68853 4.24173 1.3616 4.33079 1.21547 4.58626C0.420267 5.97346 0 7.56279 0 9.18306C0 11.3857 0.7824 13.5105 2.2032 15.1665C2.30827 15.2897 2.45813 15.3527 2.608 15.3527Z" fill="white"/>
<path d="M15.8469 2.8418C14.2523 1.28073 12.152 0.346333 9.97119 0.214067C9.53012 0.153267 9.15786 0.125 8.79999 0.125C7.60266 0.125 6.44266 0.3682 5.35199 0.847667C5.08212 0.966067 4.95946 1.28073 5.07839 1.5506C5.19626 1.81993 5.50986 1.94313 5.78079 1.8242C6.73546 1.40447 7.75146 1.19167 8.79999 1.19167C9.10826 1.19167 9.43412 1.21673 9.86666 1.27433C11.8309 1.39433 13.6896 2.22153 15.1003 3.6034C15.2043 3.70527 15.3387 3.75593 15.4736 3.75593C15.6117 3.75593 15.7499 3.7026 15.8549 3.59593C16.0603 3.3858 16.0576 3.04767 15.8469 2.8418Z" fill="white"/>
<path d="M28.32 11.3435C28.6144 11.3782 28.9013 11.4614 29.1722 11.5905C29.2464 11.6262 29.3242 11.6427 29.4016 11.6427C29.601 11.6427 29.792 11.5307 29.8832 11.3393C30.0101 11.0731 29.897 10.7553 29.6314 10.6283C29.2549 10.4486 28.856 10.3329 28.4448 10.2843C28.1514 10.2507 27.8874 10.4587 27.8528 10.751C27.8186 11.0438 28.0272 11.3089 28.32 11.3435Z" fill="white"/>
<path d="M4.4 27.6465C4.1456 27.4988 3.81867 27.5863 3.67147 27.8417L1.8048 31.0748C1.65707 31.3297 1.74454 31.6561 2 31.8033C2.08374 31.8519 2.17547 31.8748 2.26614 31.8748C2.45067 31.8748 2.62987 31.7793 2.72854 31.6081L4.5952 28.3751C4.74294 28.1201 4.65547 27.7937 4.4 27.6465Z" fill="white"/>
<path d="M7.60001 27.6465C7.34561 27.4988 7.01868 27.5863 6.87148 27.8417L5.00481 31.0748C4.85708 31.3297 4.94455 31.6561 5.20001 31.8033C5.28375 31.8519 5.37548 31.8748 5.46615 31.8748C5.65068 31.8748 5.82988 31.7793 5.92855 31.6081L7.79521 28.3751C7.94295 28.1201 7.85548 27.7937 7.60001 27.6465Z" fill="white"/>
<path d="M10.8 27.6465C10.5451 27.4988 10.2187 27.5863 10.0715 27.8417L8.20483 31.0748C8.05709 31.3297 8.14456 31.6561 8.40003 31.8033C8.48376 31.8519 8.57549 31.8748 8.66616 31.8748C8.85069 31.8748 9.02989 31.7793 9.12856 31.6081L10.9952 28.3751C11.143 28.1201 11.0555 27.7937 10.8 27.6465Z" fill="white"/>
<path d="M14 27.6465C13.7456 27.4988 13.4186 27.5863 13.2714 27.8417L11.4048 31.0748C11.257 31.3297 11.3445 31.6561 11.6 31.8033C11.6837 31.8519 11.7754 31.8748 11.8661 31.8748C12.0506 31.8748 12.2298 31.7793 12.3285 31.6081L14.1952 28.3751C14.3429 28.1201 14.2554 27.7937 14 27.6465Z" fill="white"/>
<path d="M26.8 27.6465C26.5456 27.4988 26.2187 27.5863 26.0715 27.8417L24.2048 31.0748C24.0571 31.3297 24.1446 31.6561 24.4 31.8033C24.4838 31.8519 24.5755 31.8748 24.6662 31.8748C24.8507 31.8748 25.0299 31.7793 25.1286 31.6081L26.9952 28.3751C27.143 28.1201 27.0555 27.7937 26.8 27.6465Z" fill="white"/>
<path d="M23.6 27.6465C23.3451 27.4988 23.0192 27.5863 22.8715 27.8417L21.0048 31.0748C20.8571 31.3297 20.9445 31.6561 21.2 31.8033C21.2837 31.8519 21.3755 31.8748 21.4661 31.8748C21.6507 31.8748 21.8299 31.7793 21.9285 31.6081L23.7952 28.3751C23.9429 28.1201 23.8555 27.7937 23.6 27.6465Z" fill="white"/>
<path d="M30 27.6465C29.745 27.4988 29.4186 27.5863 29.2714 27.8417L27.4048 31.0748C27.257 31.3297 27.3445 31.6561 27.6 31.8033C27.6837 31.8519 27.7754 31.8748 27.8661 31.8748C28.0506 31.8748 28.2298 31.7793 28.3285 31.6081L30.1952 28.3751C30.3429 28.1201 30.2554 27.7937 30 27.6465Z" fill="white"/>
<path d="M5.70771 24.0601C5.62878 24.2772 5.69918 24.5209 5.88158 24.6628C5.97758 24.7374 6.09331 24.7753 6.20905 24.7753C6.31305 24.7753 6.41758 24.7449 6.50825 24.6836L13.7962 19.7358C13.9488 19.6324 14.0368 19.4585 14.0298 19.275C14.0229 19.0916 13.9226 18.9241 13.7637 18.8324L10.4218 16.9033L12.072 10.899C12.1376 10.6606 12.0309 10.4089 11.8144 10.29C11.5978 10.171 11.328 10.2164 11.1621 10.4004L4.56798 17.7054C4.46025 17.8249 4.41171 17.987 4.43731 18.146C4.46238 18.3049 4.55731 18.4441 4.69705 18.5246L7.19411 19.9662L5.70771 24.0601ZM5.80158 17.9305L10.4474 12.7828L9.28371 17.018C9.21918 17.2521 9.32105 17.4996 9.53118 17.6212L12.4928 19.331L7.27198 22.8756L8.34931 19.9102C8.43731 19.6665 8.33865 19.3956 8.11465 19.266L5.80158 17.9305Z" fill="white"/>
<path d="M25.1104 24.6084C25.1035 24.4249 25.0032 24.2575 24.8443 24.1657L21.5024 22.2367L23.1531 16.2324C23.2187 15.994 23.112 15.7423 22.8955 15.6233C22.6789 15.5044 22.4091 15.5503 22.2432 15.7337L15.6485 23.0388C15.5408 23.1583 15.4923 23.3204 15.5179 23.4793C15.5429 23.6383 15.6379 23.7775 15.7776 23.858L18.2747 25.2996L16.7883 29.3935C16.7093 29.6105 16.7797 29.8543 16.9621 29.9961C17.0581 30.0708 17.1739 30.1087 17.2896 30.1087C17.3936 30.1087 17.4987 30.0783 17.5888 30.0169L24.8768 25.0692C25.0293 24.9657 25.1173 24.7919 25.1104 24.6084ZM18.3525 28.2089L19.4299 25.2436C19.5179 24.9999 19.4192 24.7289 19.1952 24.5993L16.8821 23.2639L21.5285 18.1161L20.3643 22.3513C20.2997 22.5855 20.4011 22.8329 20.6117 22.9545L23.5733 24.6644L18.3525 28.2089Z" fill="white"/>
</g>
<defs>
<clipPath id="clip0_6_1250">
<rect width="32" height="32" fill="white"/>
</clipPath>
</defs>
</svg>
