<svg width="32" height="32" viewBox="0 0 32 32" fill="none" xmlns="http://www.w3.org/2000/svg">
<g clip-path="url(#clip0_6_1280)">
<path d="M30 25H2V27H4V29H6V27H11V29H13V27H18V29H20V27H25V29H27V27H30V25Z" fill="white"/>
<path d="M8 16H2V14H8V12H2V10H8C8.53026 10.0006 9.03865 10.2114 9.4136 10.5864C9.78855 10.9614 9.99944 11.4697 10 12V14C9.99944 14.5303 9.78855 15.0386 9.4136 15.4136C9.03865 15.7886 8.53026 15.9994 8 16Z" fill="white"/>
<path d="M28.55 14.2305L19.97 6.3657C18.3113 4.84216 16.1404 3.99776 13.8882 4H2V6H12V10C12.0006 10.5303 12.2115 11.0386 12.5865 11.4135C12.9614 11.7885 13.4698 11.9994 14 12H23.1565L27.1982 15.7051C27.5655 16.0417 27.8225 16.4814 27.9355 16.9666C28.0486 17.4518 28.0125 17.9598 27.8318 18.4241C27.6512 18.8884 27.3345 19.2873 26.9233 19.5685C26.5121 19.8497 26.0255 20.0001 25.5273 20H2V22H25.5273C26.4286 22.0001 27.3088 21.728 28.0528 21.2192C28.7967 20.7105 29.3696 19.9888 29.6963 19.1489C30.0231 18.3089 30.0884 17.3898 29.8838 16.5121C29.6792 15.6344 29.2145 14.8394 28.55 14.2305ZM14 10V6.0054C15.7124 6.02946 17.3561 6.68244 18.6182 7.84L20.9746 10H14Z" fill="white"/>
</g>
<defs>
<clipPath id="clip0_6_1280">
<rect width="32" height="32" fill="white"/>
</clipPath>
</defs>
</svg>
