<svg width="32" height="32" viewBox="0 0 32 32" fill="none" xmlns="http://www.w3.org/2000/svg">
<path d="M12.8201 23.2415C14.2153 23.3827 15.4802 23.6565 16.6473 23.9989C16.6505 24.0016 16.6536 24.0045 16.6569 24.0072L16.6606 24.0028C18.3289 24.4933 19.797 25.1239 21.1579 25.7087C23.1671 26.5722 25.0318 27.3731 26.9081 27.3731C27.3413 27.3731 27.7752 27.3299 28.2117 27.2355C28.2188 27.2411 28.2247 27.2459 28.2287 27.2491L28.2455 27.2281C29.4604 26.9578 30.696 26.2856 31.9941 25.0152L30.5954 23.5852C29.9261 24.2401 29.2932 24.6885 28.6695 24.9712C27.2316 23.5886 25.2152 21.0905 25.8395 19.0911C26.6796 16.4031 29.5757 14.7758 29.6031 14.7602L32 13.4484L29.3217 12.9033C29.2208 12.8818 19.6271 11.053 16.2766 20.5226C15.4032 19.1188 14.9025 17.4513 14.9025 15.8004C14.9025 8.91807 22.8319 8.16986 23.1689 8.14158L26.8182 7.83295L23.5216 6.24372C23.1338 6.05616 13.9649 1.7457 7.35895 8.02436C1.98132 13.1338 1.99073 20.9132 2.18482 23.6592C0.687151 24.7839 0.0561633 25.8806 0 25.9823L1.74844 26.9532C1.77384 26.9073 4.37786 22.378 12.8201 23.2415ZM26.3425 14.7553C25.4019 15.6686 24.4212 16.9247 23.9309 18.4953C23.137 21.0355 24.7794 23.6281 26.2592 25.3268C24.991 25.1784 23.6229 24.5906 21.9471 23.8705C20.7387 23.351 19.3762 22.7658 17.8273 22.2706C19.4328 16.3246 23.5944 14.9693 26.3425 14.7553ZM8.73626 9.47389C12.1051 6.27305 16.4313 6.3951 19.3606 7.00558C16.1949 8.23047 12.9022 10.8677 12.9022 15.8004C12.9022 17.7985 13.4715 19.7672 14.4911 21.4504C14.0156 21.3697 13.5263 21.3019 13.0214 21.2508C9.04666 20.8492 6.16875 21.5257 4.14531 22.4826C4.09319 19.4497 4.5758 13.4277 8.73626 9.47389Z" fill="white"/>
</svg>
