<svg width="32" height="32" viewBox="0 0 32 32" fill="none" xmlns="http://www.w3.org/2000/svg">
<path d="M19.9906 4.00013C19.2585 3.99511 18.6666 3.4001 18.6666 2.66682C18.6666 1.94929 19.2893 1.33138 20.006 1.3335C20.894 1.34282 21.8056 1.57889 22.5962 1.97426C23.2544 2.30334 23.9532 2.81791 24.4844 3.61473C25.0212 4.41989 25.3333 5.43352 25.3333 6.66682C25.3333 7.90014 25.0212 8.91377 24.4844 9.71893C23.9532 10.5157 23.2544 11.0303 22.5962 11.3594C21.8082 11.7534 20.8894 11.9975 20.0028 12.0002H12C11.2636 12.0002 10.6666 11.4032 10.6666 10.6668C10.6666 9.93045 11.2636 9.33349 12 9.33349L20.0005 9.33326C20.4804 9.31728 20.9757 9.18826 21.4037 8.97426C21.7456 8.80334 22.0468 8.56791 22.2656 8.23973C22.4788 7.91989 22.6666 7.43352 22.6666 6.66682C22.6666 5.90014 22.4788 5.41377 22.2656 5.09393C22.0468 4.76574 21.7456 4.53031 21.4037 4.35939C20.9736 4.14435 20.4737 4.01333 19.9906 4.00013Z" fill="white"/>
<path d="M2.66665 9.3335C1.93027 9.3335 1.33331 9.93046 1.33331 10.6668C1.33331 11.4032 1.93027 12.0002 2.66665 12.0002H7.99998C8.73635 12.0002 9.33331 11.4032 9.33331 10.6668C9.33331 9.93046 8.73635 9.3335 7.99998 9.3335H2.66665Z" fill="white"/>
<path d="M2.66665 14.667C1.93027 14.667 1.33331 15.2639 1.33331 16.0003C1.33331 16.7367 1.93027 17.3337 2.66665 17.3337H16C16.7364 17.3337 17.3333 16.7367 17.3333 16.0003C17.3333 15.2639 16.7364 14.667 16 14.667H2.66665Z" fill="white"/>
<path d="M2.66665 20C1.93027 20 1.33331 20.5969 1.33331 21.3333C1.33331 22.0697 1.93027 22.6667 2.66665 22.6667H6.66665C7.40302 22.6667 7.99998 22.0697 7.99998 21.3333C7.99998 20.5969 7.40302 20 6.66665 20H2.66665Z" fill="white"/>
<path d="M24 24.0003C24 23.2671 24.5918 22.6721 25.324 22.667C25.807 22.6538 26.3069 22.5229 26.737 22.3078C27.0789 22.1369 27.3801 21.9014 27.5989 21.5733C27.8121 21.2534 28 20.767 28 20.0003C28 19.2337 27.8121 18.7473 27.5989 18.4274C27.3801 18.0993 27.0789 17.8638 26.737 17.6929C26.309 17.4789 25.8137 17.3499 25.3338 17.3339L20 17.3337C19.2636 17.3337 18.6666 16.7367 18.6666 16.0003C18.6666 15.2639 19.2636 14.667 20 14.667H25.3361C26.2228 14.6697 27.1416 14.9138 27.9296 15.3078C28.5877 15.6369 29.2865 16.1514 29.8177 16.9482C30.3545 17.7534 30.6666 18.767 30.6666 20.0003C30.6666 21.2337 30.3545 22.2473 29.8177 23.0525C29.2865 23.8493 28.5877 24.3638 27.9296 24.6929C27.1389 25.0883 26.2273 25.3243 25.3393 25.3337C24.6226 25.3358 24 24.7179 24 24.0003Z" fill="white"/>
<path d="M15.9906 28C15.2585 28.0051 14.6666 28.6001 14.6666 29.3333C14.6666 30.0509 15.2893 30.6688 16.006 30.6667C16.894 30.6573 17.8056 30.4213 18.5962 30.0259C19.2544 29.6968 19.9532 29.1823 20.4844 28.3855C21.0212 27.5803 21.3333 26.5667 21.3333 25.3333C21.3333 24.1 21.0212 23.0864 20.4844 22.2812C19.9532 21.4844 19.2544 20.9699 18.5962 20.6408C17.8082 20.2468 16.8894 20.0027 16.0028 20H10.6666C9.93027 20 9.33331 20.5969 9.33331 21.3333C9.33331 22.0697 9.93027 22.6667 10.6666 22.6667L16.0005 22.6669C16.4804 22.6829 16.9757 22.8119 17.4037 23.0259C17.7456 23.1968 18.0468 23.4323 18.2656 23.7604C18.4788 24.0803 18.6666 24.5667 18.6666 25.3333C18.6666 26.1 18.4788 26.5864 18.2656 26.9063C18.0468 27.2344 17.7456 27.4699 17.4037 27.6408C16.9736 27.8559 16.4737 27.9868 15.9906 28Z" fill="white"/>
</svg>
